<svg width="125" height="143" viewBox="0 0 125 143" fill="none" xmlns="http://www.w3.org/2000/svg">
<path d="M60.3684 142.432L2.12005 108.802C0.808269 108.044 0 106.645 0 105.129V37.8707C0 36.3549 0.808269 34.9556 2.12005 34.1977L60.3684 0.568438C61.6802 -0.189479 63.2967 -0.189479 64.6085 0.568438L122.857 34.1977C124.169 34.9556 124.977 36.3549 124.977 37.8707V105.129C124.977 106.645 124.169 108.044 122.857 108.802L64.6085 142.432C63.2967 143.189 61.6802 143.189 60.3684 142.432ZM12.7203 102.683L60.3684 130.194C61.6802 130.951 63.2967 130.951 64.6085 130.194L112.257 102.683C113.568 101.925 114.377 100.526 114.377 99.0103V43.9923C114.377 42.4765 113.568 41.0773 112.257 40.3194L64.6085 12.8091C63.2967 12.0512 61.6802 12.0512 60.3684 12.8091L12.7203 40.3194C11.4085 41.0773 10.6002 42.4765 10.6002 43.9923V99.0103C10.6002 100.526 11.4085 101.925 12.7203 102.683Z" fill="#122B33"/>
<path d="M60.3686 22.54L21.1476 45.1848C19.8359 45.9427 19.0276 47.3419 19.0276 48.8578V91.6987C19.0276 94.7277 20.6441 97.5288 23.2677 99.042L28.0378 101.795C28.7454 102.203 29.6278 101.695 29.6278 100.878V54.9794C29.6278 53.4636 30.4361 52.0643 31.7479 51.3064L60.3686 34.7833C61.6803 34.0254 63.2969 34.0254 64.6087 34.7833L93.2293 51.3064C94.5411 52.0643 95.3494 53.4636 95.3494 54.9794V88.0283C95.3494 89.5442 94.5411 90.9434 93.2293 91.7013L64.6087 108.224C63.2969 108.982 61.6803 108.982 60.3686 108.224L50.8283 102.718C49.5165 101.96 48.7083 100.56 48.7083 99.0446V65.9957C48.7083 64.4799 49.5165 63.0807 50.8283 62.3227L60.3686 56.8159C61.6803 56.058 63.2969 56.058 64.6087 56.8159L74.1489 62.3227C75.4607 63.0807 76.2689 64.4799 76.2689 65.9957V77.012C76.2689 78.5279 75.4607 79.9271 74.1489 80.685L69.3788 83.4384C68.6712 83.8465 67.7887 83.3377 67.7887 82.5215V75.7453V70.9672C67.7887 69.4514 66.9805 68.0522 65.6687 67.2943L63.5486 66.0699C62.8914 65.691 62.0858 65.691 61.4286 66.0699L58.7785 67.599C57.7953 68.1661 57.1885 69.2182 57.1885 70.3524V71.4999V94.1924C57.1885 95.7135 58.0047 97.1181 59.3244 97.8733L60.3473 98.4563C61.6565 99.2036 63.2651 99.201 64.5715 98.4457L84.7491 86.7961C86.0609 86.0381 86.8692 84.6389 86.8692 83.1231V59.8661C86.8692 58.3503 86.0609 56.9511 84.7491 56.1931L64.6087 44.5647C63.2969 43.8068 61.6803 43.8068 60.3686 44.5647L40.2281 56.1931C38.9163 56.9511 38.108 58.3503 38.108 59.8661V105.153C38.108 106.669 38.9163 108.068 40.2281 108.826L60.3686 120.454C61.6803 121.212 63.2969 121.212 64.6087 120.454L103.83 97.8097C105.141 97.0518 105.95 95.6525 105.95 94.1367V48.8498C105.95 47.334 105.141 45.9347 103.83 45.1768L64.6087 22.5321C63.2969 21.7741 61.6803 21.7741 60.3686 22.5321V22.54Z" fill="#122B33"/>
</svg>
