<svg width="267" height="67" viewBox="0 0 267 67" fill="none" xmlns="http://www.w3.org/2000/svg">
<path d="M93.5486 14.2598C96.3398 14.2598 98.7297 15.3245 100.718 17.4541C102.707 19.5837 103.701 22.0594 103.701 24.8777C103.701 27.6961 102.707 30.2157 100.718 32.3365C98.7297 34.459 96.3398 35.5203 93.5486 35.5203H82.0706V51.1582H78.7021V14.2598H93.5486ZM93.3567 32.6615C95.3613 32.6615 97.0771 31.8972 98.5062 30.3668C99.9334 28.8382 100.648 27.0231 100.648 24.9252C100.648 22.8272 99.9264 21.0579 98.4833 19.5204C97.0402 17.983 95.3313 17.2152 93.3585 17.2152H82.0706V32.6615H93.355H93.3567Z" fill="#6CB6AD"/>
<path d="M114.144 51.3497C111.545 51.3497 109.384 50.6135 107.659 49.1393C105.935 47.6669 105.072 45.8009 105.072 43.5413C105.072 38.1928 108.801 35.269 116.26 34.7735L123.31 34.3413V33.3081C123.31 31.1469 122.661 29.4971 121.362 28.3602C120.063 27.2234 118.282 26.6541 116.021 26.6541C114.048 26.6541 112.439 27.2111 111.197 28.3233C109.954 29.4373 109.227 30.85 109.02 32.5631H105.676C105.933 30.0962 106.968 28.0035 108.78 26.2816C110.593 24.5597 113.055 23.6987 116.167 23.6987C119.278 23.6987 121.921 24.5755 123.757 26.3291C125.594 28.0826 126.511 30.4564 126.511 33.4522L126.559 44.527C126.559 45.9678 126.707 46.9729 127.004 47.5421C127.301 48.1114 127.81 48.3785 128.532 48.3469V51.1582C128.034 51.1582 127.578 51.1108 127.161 51.0141C124.931 50.5502 123.711 49.1885 123.504 46.9307C122.782 48.18 121.55 49.2289 119.81 50.0776C118.069 50.9263 116.181 51.3515 114.143 51.3515L114.144 51.3497ZM114.289 48.3469C116.614 48.3469 118.699 47.6423 120.545 46.2331C122.39 44.824 123.312 43.1987 123.312 41.3573V37.2738L116.262 37.7781C113.245 37.9696 111.153 38.5829 109.982 39.616C108.812 40.6492 108.226 41.974 108.226 43.5923C108.226 45.0331 108.844 46.1874 110.079 47.0519C111.315 47.9164 112.717 48.3486 114.291 48.3486L114.289 48.3469Z" fill="#6CB6AD"/>
<path d="M141.525 51.5902C138.269 51.5902 135.77 50.7451 134.03 49.0565C132.289 47.3662 131.355 45.5125 131.226 43.4954H134.331C134.523 44.8079 135.313 46.0291 136.701 47.1589C138.088 48.2887 139.7 48.8527 141.538 48.8527C143.375 48.8527 144.918 48.3519 146.17 47.3522C147.421 46.3506 148.046 45.082 148.046 43.5446C148.046 42.0072 147.421 40.8018 146.17 40.0252C144.918 39.2486 143.114 38.6599 140.756 38.2593C138.19 37.8271 136.124 37.0979 134.56 36.0735C132.995 35.0492 132.214 33.4397 132.214 31.2451C132.214 29.0505 133.129 27.1336 134.957 25.7806C136.786 24.4277 138.928 23.7512 141.381 23.7512C144.269 23.7512 146.525 24.375 148.155 25.6243C149.783 26.8735 150.733 28.6921 151.006 31.0782H148.046C147.757 29.5091 146.979 28.3793 145.712 27.6906C144.445 27.0018 143.201 26.6416 141.983 26.61C140.314 26.5467 138.862 26.8735 137.627 27.5957C136.392 28.3161 135.774 29.3809 135.774 30.79C135.774 32.1992 136.355 33.329 137.518 33.9844C138.681 34.6415 140.344 35.137 142.511 35.4744C148.558 36.4197 151.581 39.0219 151.581 43.281C151.581 45.6039 150.619 47.5683 148.693 49.1778C146.768 50.7872 144.378 51.592 141.523 51.592L141.525 51.5902Z" fill="#6CB6AD"/>
<path d="M164.384 51.5902C161.128 51.5902 158.629 50.7451 156.888 49.0565C155.148 47.3662 154.213 45.5125 154.085 43.4954H157.189C157.381 44.8079 158.171 46.0291 159.56 47.1589C160.947 48.2887 162.559 48.8527 164.396 48.8527C166.233 48.8527 167.777 48.3519 169.028 47.3522C170.279 46.3506 170.904 45.082 170.904 43.5446C170.904 42.0072 170.279 40.8018 169.028 40.0252C167.777 39.2486 165.973 38.6599 163.615 38.2593C161.049 37.8271 158.983 37.0979 157.418 36.0735C155.854 35.0492 155.072 33.4397 155.072 31.2451C155.072 29.0505 155.987 27.1336 157.816 25.7806C159.644 24.4277 161.786 23.7512 164.24 23.7512C167.127 23.7512 169.384 24.375 171.013 25.6243C172.641 26.8735 173.592 28.6921 173.864 31.0782H170.904C170.616 29.5091 169.838 28.3793 168.571 27.6906C167.303 27.0018 166.059 26.6416 164.841 26.61C163.173 26.5467 161.721 26.8735 160.486 27.5957C159.25 28.3161 158.633 29.3809 158.633 30.79C158.633 32.1992 159.213 33.329 160.377 33.9844C161.54 34.6415 163.203 35.137 165.369 35.4744C171.416 36.4197 174.44 39.0219 174.44 43.281C174.44 45.6039 173.477 47.5683 171.552 49.1778C169.627 50.7872 167.237 51.592 164.382 51.592L164.384 51.5902Z" fill="#6CB6AD"/>
<path d="M191.862 23.8445C195.535 23.8445 198.514 25.1342 200.8 27.7118C203.086 30.2912 204.228 33.5453 204.228 37.4776C204.228 41.4099 203.065 44.6957 200.74 47.3383C198.414 49.9809 195.406 51.3022 191.717 51.3022C187.612 51.3022 184.426 49.6119 182.165 46.2331V63.4576H178.724V24.1081H181.779L182.165 28.7678C184.329 25.4856 187.562 23.8428 191.862 23.8428V23.8445ZM191.381 48.252C194.204 48.252 196.487 47.2188 198.227 45.1525C199.968 43.0862 200.837 40.5332 200.837 37.4899C200.837 34.4467 199.975 31.8286 198.25 29.7782C196.525 27.7277 194.236 26.7033 191.381 26.7033C189.055 26.7033 187.062 27.4764 185.403 29.0209C183.743 30.5671 182.665 32.549 182.166 34.9668V39.9867C182.663 42.422 183.743 44.4075 185.403 45.9449C187.062 47.4824 189.056 48.2502 191.381 48.2502V48.252Z" fill="#6CB6AD"/>
<path d="M218.977 51.4938C215.192 51.4938 212.093 50.1602 209.678 47.4947C207.264 44.8275 206.056 41.526 206.056 37.5849C206.056 33.6438 207.264 30.3387 209.678 27.6645C212.093 24.9902 215.192 23.6531 218.977 23.6531C222.763 23.6531 225.908 24.9902 228.314 27.6645C230.719 30.3387 231.923 33.6455 231.923 37.5849C231.923 41.5242 230.719 44.8275 228.314 47.4947C225.908 50.162 222.795 51.4938 218.977 51.4938ZM212.109 45.2474C213.849 47.3138 216.135 48.3469 218.965 48.3469C221.795 48.3469 224.081 47.3138 225.822 45.2474C227.562 43.1811 228.432 40.6281 228.432 37.5849C228.432 34.5416 227.569 31.9236 225.845 29.8731C224.12 27.8226 221.83 26.7982 218.976 26.7982C216.121 26.7982 213.867 27.8226 212.119 29.8731C210.37 31.9236 209.497 34.4942 209.497 37.5849C209.497 40.6756 210.366 43.1829 212.107 45.2474H212.109Z" fill="#6CB6AD"/>
<path d="M249.512 23.8443L249.465 26.7997C246.737 26.5432 244.44 27.2003 242.571 28.7694C240.702 30.3385 239.768 32.5893 239.768 35.5201V51.158H236.208V24.1079H239.263L239.768 29.4652C240.137 28.6482 240.514 27.9524 240.899 27.376C241.285 26.7997 241.837 26.1918 242.559 25.5505C243.281 24.9109 244.234 24.4488 245.422 24.1694C246.608 23.89 247.972 23.7811 249.512 23.8443Z" fill="#6CB6AD"/>
<path d="M263.443 51.2057C258.71 51.2057 256.345 48.9566 256.345 44.455L256.393 26.7508H252.253V24.0115H256.393V14.2598H259.833V24.0133H265.896V26.8L259.689 26.7525V43.9771C259.689 44.6342 259.721 45.1578 259.786 45.5514C259.849 45.9432 259.99 46.3597 260.206 46.8007C260.423 47.2417 260.803 47.5703 261.349 47.7864C261.894 48.0025 262.591 48.1115 263.441 48.1115H266.304V51.2109H263.441L263.443 51.2057Z" fill="#6CB6AD"/>
<path d="M28.757 66.577L1.78657 51.0058C1.17918 50.6549 0.804932 50.007 0.804932 49.3052V18.1628C0.804932 17.4609 1.17918 16.813 1.78657 16.4621L28.757 0.890887C29.3644 0.539952 30.1129 0.539952 30.7203 0.890887L57.6907 16.4621C58.2981 16.813 58.6723 17.4609 58.6723 18.1628V49.3052C58.6723 50.007 58.2981 50.6549 57.6907 51.0058L30.7203 66.577C30.1129 66.928 29.3644 66.928 28.757 66.577ZM6.69475 48.1726L28.757 60.9105C29.3644 61.2615 30.1129 61.2615 30.7203 60.9105L52.7825 48.1726C53.3899 47.8216 53.7642 47.1738 53.7642 46.4719V20.9972C53.7642 20.2954 53.3899 19.6475 52.7825 19.2966L30.7203 6.55861C30.1129 6.20768 29.3644 6.20768 28.757 6.55861L6.69475 19.2966C6.08736 19.6475 5.71311 20.2954 5.71311 20.9972V46.4719C5.71311 47.1738 6.08736 47.8216 6.69475 48.1726Z" fill="#6CB6AD"/>
<path d="M28.7571 11.0642L10.5969 21.5493C9.98948 21.9003 9.61523 22.5482 9.61523 23.25V43.0864C9.61523 44.4889 10.3637 45.7859 11.5785 46.4866L13.7872 47.7615C14.1148 47.9504 14.5234 47.7148 14.5234 47.3369V26.0845C14.5234 25.3826 14.8977 24.7347 15.505 24.3838L28.7571 16.7332C29.3645 16.3823 30.113 16.3823 30.7204 16.7332L43.9725 24.3838C44.5799 24.7347 44.9541 25.3826 44.9541 26.0845V41.387C44.9541 42.0888 44.5799 42.7367 43.9725 43.0877L30.7204 50.7383C30.113 51.0892 29.3645 51.0892 28.7571 50.7383L24.3398 48.1885C23.7324 47.8375 23.3581 47.1897 23.3581 46.4878V31.1853C23.3581 30.4835 23.7324 29.8356 24.3398 29.4846L28.7571 26.9348C29.3645 26.5839 30.113 26.5839 30.7204 26.9348L35.1378 29.4846C35.7451 29.8356 36.1194 30.4835 36.1194 31.1853V36.2861C36.1194 36.988 35.7451 37.6359 35.1378 37.9868L32.9291 39.2617C32.6015 39.4507 32.1929 39.2151 32.1929 38.8372V35.6996V33.4873C32.1929 32.7854 31.8186 32.1375 31.2112 31.7866L30.2296 31.2197C29.9253 31.0442 29.5523 31.0442 29.2479 31.2197L28.0209 31.9277C27.5657 32.1903 27.2847 32.6774 27.2847 33.2026V33.7339V44.2411C27.2847 44.9454 27.6626 45.5957 28.2737 45.9454L28.7473 46.2154C29.3535 46.5614 30.0983 46.5602 30.7032 46.2105L40.0459 40.8164C40.6533 40.4655 41.0276 39.8176 41.0276 39.1157V28.3472C41.0276 27.6453 40.6533 26.9974 40.0459 26.6465L30.7204 21.2622C30.113 20.9113 29.3645 20.9113 28.7571 21.2622L19.4316 26.6465C18.8242 26.9974 18.45 27.6453 18.45 28.3472V49.3161C18.45 50.018 18.8242 50.6659 19.4316 51.0168L28.7571 56.4011C29.3645 56.752 30.113 56.752 30.7204 56.4011L48.8807 45.916C49.488 45.5651 49.8623 44.9172 49.8623 44.2153V23.2463C49.8623 22.5445 49.488 21.8966 48.8807 21.5457L30.7204 11.0606C30.113 10.7096 29.3645 10.7096 28.7571 11.0606V11.0642Z" fill="#6CB6AD"/>
</svg>
