<svg width="267" height="67" viewBox="0 0 267 67" fill="none" xmlns="http://www.w3.org/2000/svg">
<path d="M93.4609 14.3708C96.2521 14.3708 98.642 15.4356 100.631 17.5652C102.619 19.6948 103.614 22.1705 103.614 24.9888C103.614 27.8072 102.619 30.3268 100.631 32.4476C98.642 34.5701 96.2521 35.6314 93.4609 35.6314H81.9829V51.2693H78.6145V14.3708H93.4609ZM93.2691 32.7726C95.2736 32.7726 96.9895 32.0083 98.4185 30.4779C99.8458 28.9492 100.56 27.1342 100.56 25.0363C100.56 22.9383 99.8388 21.1689 98.3956 19.6315C96.9525 18.0941 95.2437 17.3262 93.2709 17.3262H81.9829V32.7726H93.2673H93.2691Z" fill="white"/>
<path d="M114.057 51.4606C111.458 51.4606 109.297 50.7243 107.572 49.2502C105.847 47.7777 104.985 45.9117 104.985 43.6521C104.985 38.3036 108.714 35.3799 116.172 34.8844L123.223 34.4521V33.419C123.223 31.2578 122.573 29.6079 121.274 28.4711C119.976 27.3342 118.195 26.765 115.933 26.765C113.96 26.765 112.352 27.3219 111.109 28.4342C109.867 29.5482 109.14 30.9608 108.932 32.674H105.589C105.845 30.2071 106.88 28.1144 108.693 26.3925C110.506 24.6705 112.968 23.8096 116.079 23.8096C119.191 23.8096 121.834 24.6863 123.67 26.4399C125.507 28.1935 126.424 30.5673 126.424 33.5631L126.471 44.6379C126.471 46.0787 126.619 47.0837 126.917 47.653C127.214 48.2223 127.723 48.4893 128.444 48.4577V51.269C127.946 51.269 127.49 51.2216 127.073 51.125C124.843 50.6611 123.624 49.2994 123.416 47.0415C122.695 48.2908 121.463 49.3398 119.722 50.1884C117.982 51.0371 116.093 51.4623 114.055 51.4623L114.057 51.4606ZM114.201 48.4577C116.526 48.4577 118.612 47.7531 120.458 46.344C122.302 44.9348 123.224 43.3095 123.224 41.4681V37.3847L116.174 37.889C113.158 38.0805 111.065 38.6937 109.895 39.7269C108.725 40.76 108.139 42.0848 108.139 43.7031C108.139 45.1439 108.756 46.2983 109.992 47.1628C111.227 48.0272 112.63 48.4595 114.203 48.4595L114.201 48.4577Z" fill="white"/>
<path d="M141.438 51.7013C138.182 51.7013 135.683 50.8561 133.942 49.1676C132.202 47.4773 131.267 45.6236 131.139 43.6065H134.243C134.435 44.919 135.225 46.1402 136.614 47.27C138 48.3998 139.613 48.9638 141.45 48.9638C143.287 48.9638 144.831 48.463 146.082 47.4632C147.333 46.4617 147.958 45.1931 147.958 43.6557C147.958 42.1182 147.333 40.9129 146.082 40.1363C144.831 39.3596 143.027 38.771 140.668 38.3704C138.103 37.9382 136.036 37.209 134.472 36.1846C132.907 35.1603 132.126 33.5508 132.126 31.3562C132.126 29.1616 133.041 27.2447 134.87 25.8917C136.698 24.5388 138.84 23.8623 141.293 23.8623C144.181 23.8623 146.437 24.4861 148.067 25.7353C149.695 26.9846 150.645 28.8032 150.918 31.1893H147.958C147.669 29.6202 146.891 28.4904 145.624 27.8017C144.357 27.1129 143.113 26.7527 141.895 26.7211C140.227 26.6578 138.775 26.9846 137.539 27.7068C136.304 28.4272 135.686 29.492 135.686 30.9011C135.686 32.3103 136.267 33.4401 137.43 34.0955C138.594 34.7526 140.257 35.2481 142.423 35.5855C148.47 36.5308 151.494 39.133 151.494 43.3921C151.494 45.715 150.531 47.6794 148.606 49.2888C146.68 50.8983 144.29 51.7031 141.436 51.7031L141.438 51.7013Z" fill="white"/>
<path d="M164.296 51.7013C161.041 51.7013 158.542 50.8561 156.801 49.1676C155.061 47.4773 154.126 45.6236 153.998 43.6065H157.102C157.294 44.919 158.084 46.1402 159.473 47.27C160.859 48.3998 162.471 48.9638 164.309 48.9638C166.146 48.9638 167.689 48.463 168.941 47.4632C170.192 46.4617 170.817 45.1931 170.817 43.6557C170.817 42.1182 170.192 40.9129 168.941 40.1363C167.689 39.3596 165.886 38.771 163.527 38.3704C160.961 37.9382 158.895 37.209 157.331 36.1846C155.766 35.1603 154.985 33.5508 154.985 31.3562C154.985 29.1616 155.9 27.2447 157.729 25.8917C159.557 24.5388 161.699 23.8623 164.152 23.8623C167.04 23.8623 169.296 24.4861 170.926 25.7353C172.554 26.9846 173.504 28.8032 173.777 31.1893H170.817C170.528 29.6202 169.75 28.4904 168.483 27.8017C167.216 27.1129 165.972 26.7527 164.754 26.7211C163.086 26.6578 161.634 26.9846 160.398 27.7068C159.163 28.4272 158.545 29.492 158.545 30.9011C158.545 32.3103 159.126 33.4401 160.289 34.0955C161.452 34.7526 163.116 35.2481 165.282 35.5855C171.329 36.5308 174.352 39.133 174.352 43.3921C174.352 45.715 173.39 47.6794 171.464 49.2888C169.539 50.8983 167.149 51.7031 164.295 51.7031L164.296 51.7013Z" fill="white"/>
<path d="M191.774 23.9556C195.447 23.9556 198.426 25.2453 200.712 27.8229C202.998 30.4023 204.141 33.6564 204.141 37.5887C204.141 41.521 202.977 44.8067 200.652 47.4494C198.326 50.092 195.318 51.4133 191.629 51.4133C187.524 51.4133 184.338 49.723 182.077 46.3442V63.5687H178.636V24.2192H181.691L182.077 28.8789C184.241 25.5967 187.474 23.9539 191.774 23.9539V23.9556ZM191.293 48.3631C194.116 48.3631 196.399 47.3299 198.139 45.2636C199.88 43.1973 200.749 40.6443 200.749 37.601C200.749 34.5578 199.887 31.9397 198.162 29.8892C196.437 27.8387 194.148 26.8144 191.293 26.8144C188.967 26.8144 186.975 27.5875 185.315 29.1319C183.655 30.6782 182.577 32.6601 182.079 35.0779V40.0978C182.575 42.5331 183.655 44.5186 185.315 46.056C186.975 47.5935 188.969 48.3613 191.293 48.3613V48.3631Z" fill="white"/>
<path d="M218.89 51.6047C215.104 51.6047 212.005 50.271 209.591 47.6056C207.176 44.9383 205.969 41.6368 205.969 37.6957C205.969 33.7546 207.176 30.4496 209.591 27.7753C212.005 25.101 215.104 23.7639 218.89 23.7639C222.675 23.7639 225.82 25.101 228.226 27.7753C230.632 30.4496 231.836 33.7564 231.836 37.6957C231.836 41.6351 230.632 44.9383 228.226 47.6056C225.82 50.2728 222.707 51.6047 218.89 51.6047ZM212.021 45.3583C213.762 47.4246 216.048 48.4578 218.878 48.4578C221.707 48.4578 223.994 47.4246 225.734 45.3583C227.475 43.292 228.344 40.739 228.344 37.6957C228.344 34.6525 227.482 32.0344 225.757 29.9839C224.032 27.9334 221.743 26.9091 218.888 26.9091C216.034 26.9091 213.779 27.9334 212.032 29.9839C210.282 32.0344 209.409 34.605 209.409 37.6957C209.409 40.7864 210.279 43.2937 212.019 45.3583H212.021Z" fill="white"/>
<path d="M249.424 23.9554L249.377 26.9108C246.649 26.6543 244.352 27.3114 242.483 28.8805C240.614 30.4496 239.68 32.7004 239.68 35.6311V51.2691H236.12V24.219H239.175L239.68 29.5763C240.049 28.7593 240.426 28.0635 240.811 27.4871C241.197 26.9108 241.75 26.3029 242.471 25.6615C243.193 25.022 244.146 24.5599 245.334 24.2805C246.521 24.0011 247.884 23.8922 249.424 23.9554Z" fill="white"/>
<path d="M263.355 51.3167C258.623 51.3167 256.258 49.0677 256.258 44.5661L256.305 26.8618H252.166V24.1226H256.305V14.3708H259.746V24.1243H265.809V26.911L259.602 26.8636V44.0882C259.602 44.7453 259.633 45.2689 259.698 45.6625C259.762 46.0543 259.902 46.4707 260.119 46.9118C260.335 47.3528 260.716 47.6814 261.261 47.8975C261.807 48.1136 262.504 48.2225 263.354 48.2225H266.217V51.322H263.354L263.355 51.3167Z" fill="white"/>
<path d="M28.6694 66.6881L1.69892 51.1169C1.09153 50.766 0.717285 50.1181 0.717285 49.4162V18.2738C0.717285 17.572 1.09153 16.9241 1.69892 16.5732L28.6694 1.00197C29.2767 0.651036 30.0252 0.651036 30.6326 1.00197L57.6031 16.5732C58.2105 16.9241 58.5847 17.572 58.5847 18.2738V49.4162C58.5847 50.1181 58.2105 50.766 57.6031 51.1169L30.6326 66.6881C30.0252 67.0391 29.2767 67.0391 28.6694 66.6881ZM6.6071 48.2837L28.6694 61.0216C29.2767 61.3726 30.0252 61.3726 30.6326 61.0216L52.6949 48.2837C53.3023 47.9327 53.6765 47.2849 53.6765 46.583V21.1083C53.6765 20.4064 53.3023 19.7586 52.6949 19.4076L30.6326 6.6697C30.0252 6.31876 29.2767 6.31876 28.6694 6.6697L6.6071 19.4076C5.99971 19.7586 5.62546 20.4064 5.62546 21.1083V46.583C5.62546 47.2849 5.99971 47.9327 6.6071 48.2837Z" fill="white"/>
<path d="M28.6697 11.1756L10.5095 21.6607C9.90208 22.0116 9.52783 22.6595 9.52783 23.3613V43.1978C9.52783 44.6003 10.2763 45.8972 11.4911 46.5979L13.6998 47.8728C14.0274 48.0618 14.436 47.8262 14.436 47.4482V26.1958C14.436 25.494 14.8103 24.8461 15.4176 24.4951L28.6697 16.8445C29.2771 16.4936 30.0256 16.4936 30.633 16.8445L43.8851 24.4951C44.4925 24.8461 44.8667 25.494 44.8667 26.1958V41.4983C44.8667 42.2002 44.4925 42.848 43.8851 43.199L30.633 50.8496C30.0256 51.2005 29.2771 51.2005 28.6697 50.8496L24.2524 48.2998C23.645 47.9489 23.2707 47.301 23.2707 46.5991V31.2966C23.2707 30.5948 23.645 29.9469 24.2524 29.596L28.6697 27.0462C29.2771 26.6952 30.0256 26.6952 30.633 27.0462L35.0504 29.596C35.6577 29.9469 36.032 30.5948 36.032 31.2966V36.3975C36.032 37.0993 35.6577 37.7472 35.0504 38.0982L32.8417 39.3731C32.5141 39.562 32.1054 39.3264 32.1054 38.9485V35.811V33.5986C32.1054 32.8967 31.7312 32.2488 31.1238 31.8979L30.1422 31.331C29.8379 31.1555 29.4649 31.1555 29.1605 31.331L27.9335 32.039C27.4783 32.3016 27.1973 32.7887 27.1973 33.3139V33.8452V44.3524C27.1973 45.0567 27.5752 45.7071 28.1863 46.0568L28.6599 46.3267C29.2661 46.6727 30.0109 46.6715 30.6158 46.3218L39.9585 40.9277C40.5659 40.5768 40.9402 39.9289 40.9402 39.227V28.4585C40.9402 27.7566 40.5659 27.1087 39.9585 26.7578L30.633 21.3735C30.0256 21.0226 29.2771 21.0226 28.6697 21.3735L19.3442 26.7578C18.7368 27.1087 18.3626 27.7566 18.3626 28.4585V49.4275C18.3626 50.1293 18.7368 50.7772 19.3442 51.1281L28.6697 56.5124C29.2771 56.8633 30.0256 56.8633 30.633 56.5124L48.7933 46.0273C49.4006 45.6764 49.7749 45.0285 49.7749 44.3266V23.3577C49.7749 22.6558 49.4006 22.0079 48.7933 21.657L30.633 11.1719C30.0256 10.821 29.2771 10.821 28.6697 11.1719V11.1756Z" fill="white"/>
</svg>
