<svg width="267" height="67" viewBox="0 0 267 67" fill="none" xmlns="http://www.w3.org/2000/svg">
<path d="M28.6692 66.4661L1.69892 50.895C1.09153 50.5441 0.717285 49.8962 0.717285 49.1943V18.0521C0.717285 17.3502 1.09153 16.7023 1.69892 16.3514L28.6692 0.78029C29.2766 0.429357 30.0251 0.429357 30.6325 0.78029L57.6028 16.3514C58.2102 16.7023 58.5844 17.3502 58.5844 18.0521V49.1943C58.5844 49.8962 58.2102 50.5441 57.6028 50.895L30.6325 66.4661C30.0251 66.817 29.2766 66.817 28.6692 66.4661ZM6.60707 48.0617L28.6692 60.7996C29.2766 61.1506 30.0251 61.1506 30.6325 60.7996L52.6946 48.0617C53.302 47.7108 53.6763 47.0629 53.6763 46.3611V20.8865C53.6763 20.1847 53.302 19.5368 52.6946 19.1859L30.6325 6.44799C30.0251 6.09705 29.2766 6.09705 28.6692 6.44799L6.60707 19.1859C5.99968 19.5368 5.62544 20.1847 5.62544 20.8865V46.3611C5.62544 47.0629 5.99968 47.7108 6.60707 48.0617Z" fill="url(#paint0_linear_1401_1303)"/>
<path d="M28.6691 10.9539L10.509 21.4389C9.90159 21.7899 9.52734 22.4377 9.52734 23.1396V42.9759C9.52734 44.3784 10.2758 45.6754 11.4906 46.376L13.6993 47.6509C14.0269 47.8399 14.4355 47.6043 14.4355 47.2264V25.9741C14.4355 25.2722 14.8097 24.6243 15.4171 24.2734L28.6691 16.6228C29.2765 16.2719 30.025 16.2719 30.6324 16.6228L43.8844 24.2734C44.4918 24.6243 44.866 25.2722 44.866 25.9741V41.2765C44.866 41.9783 44.4918 42.6262 43.8844 42.9771L30.6324 50.6277C30.025 50.9786 29.2765 50.9786 28.6691 50.6277L24.2518 48.0779C23.6444 47.727 23.2702 47.0791 23.2702 46.3773V31.0749C23.2702 30.373 23.6444 29.7251 24.2518 29.3742L28.6691 26.8244C29.2765 26.4735 30.025 26.4735 30.6324 26.8244L35.0497 29.3742C35.6571 29.7251 36.0314 30.373 36.0314 31.0749V36.1757C36.0314 36.8775 35.6571 37.5254 35.0497 37.8763L32.8411 39.1512C32.5134 39.3402 32.1048 39.1046 32.1048 38.7267V35.5891V33.3768C32.1048 32.6749 31.7306 32.0271 31.1232 31.6761L30.1416 31.1092C29.8373 30.9338 29.4643 30.9338 29.16 31.1092L27.9329 31.8172C27.4777 32.0798 27.1967 32.5669 27.1967 33.0921V33.6234V44.1306C27.1967 44.8349 27.5746 45.4852 28.1857 45.8349L28.6593 46.1049C29.2655 46.4509 30.0103 46.4496 30.6152 46.0999L39.9579 40.7059C40.5653 40.355 40.9395 39.7071 40.9395 39.0052V28.2367C40.9395 27.5349 40.5653 26.887 39.9579 26.5361L30.6324 21.1518C30.025 20.8009 29.2765 20.8009 28.6691 21.1518L19.3436 26.5361C18.7363 26.887 18.362 27.5349 18.362 28.2367V49.2056C18.362 49.9074 18.7363 50.5553 19.3436 50.9063L28.6691 56.2905C29.2765 56.6414 30.025 56.6414 30.6324 56.2905L48.7926 45.8055C49.3999 45.4545 49.7742 44.8066 49.7742 44.1048V23.1359C49.7742 22.4341 49.3999 21.7862 48.7926 21.4352L30.6324 10.9502C30.025 10.5993 29.2765 10.5993 28.6691 10.9502V10.9539Z" fill="url(#paint1_linear_1401_1303)"/>
<path d="M93.4614 14.1492C96.2526 14.1492 98.6425 15.214 100.631 17.3435C102.62 19.4731 103.614 21.9488 103.614 24.7671C103.614 27.5855 102.62 30.1051 100.631 32.2259C98.6425 34.3484 96.2526 35.4097 93.4614 35.4097H81.9834V51.0476H78.615V14.1492H93.4614ZM93.2696 32.5509C95.2741 32.5509 96.99 31.7866 98.419 30.2562C99.8463 28.7276 100.561 26.9125 100.561 24.8146C100.561 22.7166 99.8392 20.9473 98.3961 19.4098C96.953 17.8724 95.2442 17.1046 93.2713 17.1046H81.9834V32.5509H93.2678H93.2696Z" fill="black"/>
<path d="M114.057 51.2391C111.458 51.2391 109.297 50.5029 107.572 49.0287C105.847 47.5563 104.985 45.6903 104.985 43.4307C104.985 38.0822 108.714 35.1584 116.173 34.6629L123.223 34.2307V33.1975C123.223 31.0363 122.573 29.3865 121.275 28.2496C119.976 27.1128 118.195 26.5435 115.933 26.5435C113.961 26.5435 112.352 27.1005 111.11 28.2127C109.867 29.3267 109.14 30.7394 108.933 32.4525H105.589C105.846 29.9856 106.881 27.893 108.693 26.171C110.506 24.4491 112.968 23.5881 116.079 23.5881C119.191 23.5881 121.834 24.4649 123.67 26.2185C125.507 27.972 126.424 30.3458 126.424 33.3416L126.472 44.4164C126.472 45.8572 126.619 46.8623 126.917 47.4315C127.214 48.0008 127.723 48.2679 128.444 48.2363V51.0476C127.946 51.0476 127.491 51.0002 127.073 50.9035C124.844 50.4396 123.624 49.0779 123.416 46.8201C122.695 48.0694 121.463 49.1183 119.722 49.967C117.982 50.8157 116.094 51.2409 114.056 51.2409L114.057 51.2391ZM114.202 48.2363C116.526 48.2363 118.612 47.5317 120.458 46.1225C122.302 44.7134 123.225 43.0881 123.225 41.2467V37.1632L116.174 37.6675C113.158 37.859 111.066 38.4723 109.895 39.5054C108.725 40.5386 108.139 41.8634 108.139 43.4817C108.139 44.9225 108.757 46.0769 109.992 46.9413C111.227 47.8058 112.63 48.238 114.203 48.238L114.202 48.2363Z" fill="black"/>
<path d="M141.438 51.4796C138.182 51.4796 135.683 50.6345 133.943 48.9459C132.202 47.2556 131.268 45.4019 131.139 43.3848H134.244C134.435 44.6973 135.226 45.9185 136.614 47.0483C138.001 48.1781 139.613 48.7421 141.45 48.7421C143.288 48.7421 144.831 48.2413 146.082 47.2416C147.334 46.24 147.958 44.9714 147.958 43.434C147.958 41.8966 147.334 40.6912 146.082 39.9146C144.831 39.138 143.027 38.5493 140.669 38.1487C138.103 37.7165 136.037 36.9873 134.472 35.9629C132.908 34.9386 132.126 33.3291 132.126 31.1345C132.126 28.9399 133.042 27.023 134.87 25.67C136.699 24.3171 138.84 23.6406 141.294 23.6406C144.182 23.6406 146.438 24.2644 148.068 25.5137C149.695 26.7629 150.646 28.5815 150.919 30.9676H147.958C147.67 29.3985 146.892 28.2687 145.625 27.58C144.358 26.8912 143.113 26.531 141.896 26.4994C140.227 26.4361 138.775 26.7629 137.54 27.4851C136.304 28.2055 135.687 29.2703 135.687 30.6794C135.687 32.0886 136.267 33.2184 137.431 33.8738C138.594 34.5309 140.257 35.0264 142.424 35.3638C148.471 36.3091 151.494 38.9113 151.494 43.1704C151.494 45.4933 150.531 47.4577 148.606 49.0672C146.681 50.6766 144.291 51.4814 141.436 51.4814L141.438 51.4796Z" fill="black"/>
<path d="M164.297 51.4796C161.041 51.4796 158.542 50.6345 156.802 48.9459C155.061 47.2556 154.127 45.4019 153.998 43.3848H157.102C157.294 44.6973 158.085 45.9185 159.473 47.0483C160.86 48.1781 162.472 48.7421 164.309 48.7421C166.147 48.7421 167.69 48.2413 168.941 47.2416C170.193 46.24 170.817 44.9714 170.817 43.434C170.817 41.8966 170.193 40.6912 168.941 39.9146C167.69 39.138 165.886 38.5493 163.528 38.1487C160.962 37.7165 158.896 36.9873 157.331 35.9629C155.767 34.9386 154.985 33.3291 154.985 31.1345C154.985 28.9399 155.9 27.023 157.729 25.67C159.558 24.3171 161.699 23.6406 164.153 23.6406C167.041 23.6406 169.297 24.2644 170.926 25.5137C172.554 26.7629 173.505 28.5815 173.777 30.9676H170.817C170.529 29.3985 169.751 28.2687 168.484 27.58C167.217 26.8912 165.972 26.531 164.754 26.4994C163.086 26.4361 161.634 26.7629 160.399 27.4851C159.163 28.2055 158.546 29.2703 158.546 30.6794C158.546 32.0886 159.126 33.2184 160.29 33.8738C161.453 34.5309 163.116 35.0264 165.282 35.3638C171.329 36.3091 174.353 38.9113 174.353 43.1704C174.353 45.4933 173.39 47.4577 171.465 49.0672C169.54 50.6766 167.15 51.4814 164.295 51.4814L164.297 51.4796Z" fill="black"/>
<path d="M191.774 23.7339C195.447 23.7339 198.427 25.0236 200.713 27.6012C202.999 30.1806 204.141 33.4347 204.141 37.367C204.141 41.2993 202.978 44.5851 200.653 47.2277C198.326 49.8703 195.319 51.1916 191.63 51.1916C187.524 51.1916 184.339 49.5013 182.077 46.1225V63.347H178.637V23.9975H181.692L182.077 28.6572C184.242 25.375 187.475 23.7322 191.774 23.7322V23.7339ZM191.294 48.1414C194.117 48.1414 196.399 47.1082 198.14 45.0419C199.88 42.9756 200.75 40.4226 200.75 37.3793C200.75 34.3361 199.887 31.7181 198.163 29.6676C196.438 27.6171 194.148 26.5927 191.294 26.5927C188.967 26.5927 186.975 27.3658 185.315 28.9103C183.656 30.4565 182.577 32.4385 182.079 34.8562V39.8761C182.575 42.3114 183.656 44.2969 185.315 45.8343C186.975 47.3718 188.969 48.1396 191.294 48.1396V48.1414Z" fill="black"/>
<path d="M218.89 51.383C215.105 51.383 212.006 50.0494 209.591 47.3839C207.177 44.7167 205.969 41.4151 205.969 37.474C205.969 33.5329 207.177 30.2279 209.591 27.5536C212.006 24.8794 215.105 23.5422 218.89 23.5422C222.676 23.5422 225.821 24.8794 228.227 27.5536C230.632 30.2279 231.836 33.5347 231.836 37.474C231.836 41.4134 230.632 44.7167 228.227 47.3839C225.821 50.0511 222.708 51.383 218.89 51.383ZM212.021 45.1366C213.762 47.2029 216.048 48.2361 218.878 48.2361C221.708 48.2361 223.994 47.2029 225.735 45.1366C227.475 43.0703 228.344 40.5173 228.344 37.474C228.344 34.4308 227.482 31.8128 225.757 29.7623C224.033 27.7118 221.743 26.6874 218.889 26.6874C216.034 26.6874 213.78 27.7118 212.032 29.7623C210.283 31.8128 209.41 34.3833 209.41 37.474C209.41 40.5647 210.279 43.0721 212.02 45.1366H212.021Z" fill="black"/>
<path d="M249.425 23.7337L249.377 26.6891C246.65 26.4326 244.353 27.0897 242.484 28.6588C240.615 30.2279 239.68 32.4787 239.68 35.4095V51.0474H236.12V23.9973H239.175L239.68 29.3546C240.05 28.5376 240.427 27.8418 240.812 27.2655C241.197 26.6891 241.75 26.0812 242.472 25.4399C243.193 24.8003 244.147 24.3382 245.335 24.0588C246.521 23.7794 247.885 23.6705 249.425 23.7337Z" fill="black"/>
<path d="M263.355 51.0951C258.623 51.0951 256.258 48.846 256.258 44.3444L256.305 26.6402H252.166V23.9009H256.305V14.1492H259.746V23.9027H265.809V26.6894L259.602 26.6419V43.8665C259.602 44.5236 259.633 45.0472 259.698 45.4408C259.762 45.8326 259.902 46.2491 260.119 46.6901C260.335 47.1311 260.716 47.4597 261.261 47.6758C261.807 47.8919 262.504 48.0009 263.354 48.0009H266.217V51.1003H263.354L263.355 51.0951Z" fill="black"/>
<defs>
<linearGradient id="paint0_linear_1401_1303" x1="13.053" y1="1.89789" x2="43.1297" y2="65.6869" gradientUnits="userSpaceOnUse">
<stop stop-color="#4A47D3"/>
<stop offset="1" stop-color="#C1F6FF"/>
</linearGradient>
<linearGradient id="paint1_linear_1401_1303" x1="18.1069" y1="11.6435" x2="38.8885" y2="55.8959" gradientUnits="userSpaceOnUse">
<stop stop-color="#4A47D3"/>
<stop offset="1" stop-color="#C1F6FF"/>
</linearGradient>
</defs>
</svg>
