<svg width="267" height="67" viewBox="0 0 267 67" fill="none" xmlns="http://www.w3.org/2000/svg">
<path d="M93.6394 14.3708C96.4306 14.3708 98.8205 15.4356 100.809 17.5652C102.798 19.6948 103.792 22.1705 103.792 24.9888C103.792 27.8072 102.798 30.3268 100.809 32.4476C98.8205 34.5701 96.4306 35.6314 93.6394 35.6314H82.1614V51.2693H78.793V14.3708H93.6394ZM93.4476 32.7726C95.4521 32.7726 97.168 32.0083 98.597 30.4779C100.024 28.9492 100.739 27.1342 100.739 25.0363C100.739 22.9383 100.017 21.1689 98.5741 19.6315C97.131 18.0941 95.4222 17.3262 93.4493 17.3262H82.1614V32.7726H93.4458H93.4476Z" fill="#122B33"/>
<path d="M114.236 51.4606C111.636 51.4606 109.475 50.7243 107.751 49.2502C106.026 47.7777 105.164 45.9117 105.164 43.6521C105.164 38.3036 108.893 35.3799 116.351 34.8844L123.401 34.4521V33.419C123.401 31.2578 122.752 29.6079 121.453 28.4711C120.154 27.3342 118.373 26.765 116.112 26.765C114.139 26.765 112.53 27.3219 111.288 28.4342C110.046 29.5482 109.319 30.9608 109.111 32.674H105.767C106.024 30.2071 107.059 28.1144 108.872 26.3925C110.684 24.6705 113.146 23.8096 116.258 23.8096C119.369 23.8096 122.013 24.6863 123.848 26.4399C125.686 28.1935 126.603 30.5673 126.603 33.5631L126.65 44.6379C126.65 46.0787 126.798 47.0837 127.095 47.653C127.393 48.2223 127.901 48.4893 128.623 48.4577V51.269C128.125 51.269 127.669 51.2216 127.252 51.125C125.022 50.6611 123.803 49.2994 123.595 47.0415C122.873 48.2908 121.641 49.3398 119.901 50.1884C118.16 51.0371 116.272 51.4623 114.234 51.4623L114.236 51.4606ZM114.38 48.4577C116.705 48.4577 118.79 47.7531 120.637 46.344C122.481 44.9348 123.403 43.3095 123.403 41.4681V37.3847L116.353 37.889C113.336 38.0805 111.244 38.6937 110.074 39.7269C108.903 40.76 108.317 42.0848 108.317 43.7031C108.317 45.1439 108.935 46.2983 110.17 47.1628C111.406 48.0272 112.809 48.4595 114.382 48.4595L114.38 48.4577Z" fill="#122B33"/>
<path d="M141.616 51.7013C138.36 51.7013 135.861 50.8561 134.121 49.1676C132.38 47.4773 131.446 45.6236 131.317 43.6065H134.422C134.614 44.919 135.404 46.1402 136.792 47.27C138.179 48.3998 139.791 48.9638 141.629 48.9638C143.466 48.9638 145.009 48.463 146.261 47.4632C147.512 46.4617 148.137 45.1931 148.137 43.6557C148.137 42.1182 147.512 40.9129 146.261 40.1363C145.009 39.3596 143.205 38.771 140.847 38.3704C138.281 37.9382 136.215 37.209 134.651 36.1846C133.086 35.1603 132.305 33.5508 132.305 31.3562C132.305 29.1616 133.22 27.2447 135.048 25.8917C136.877 24.5388 139.019 23.8623 141.472 23.8623C144.36 23.8623 146.616 24.4861 148.246 25.7353C149.874 26.9846 150.824 28.8032 151.097 31.1893H148.137C147.848 29.6202 147.07 28.4904 145.803 27.8017C144.536 27.1129 143.292 26.7527 142.074 26.7211C140.405 26.6578 138.954 26.9846 137.718 27.7068C136.483 28.4272 135.865 29.492 135.865 30.9011C135.865 32.3103 136.446 33.4401 137.609 34.0955C138.772 34.7526 140.435 35.2481 142.602 35.5855C148.649 36.5308 151.672 39.133 151.672 43.3921C151.672 45.715 150.71 47.6794 148.784 49.2888C146.859 50.8983 144.469 51.7031 141.614 51.7031L141.616 51.7013Z" fill="#122B33"/>
<path d="M164.475 51.7013C161.219 51.7013 158.72 50.8561 156.979 49.1676C155.239 47.4773 154.304 45.6236 154.176 43.6065H157.28C157.472 44.919 158.262 46.1402 159.651 47.27C161.038 48.3998 162.65 48.9638 164.487 48.9638C166.324 48.9638 167.868 48.463 169.119 47.4632C170.37 46.4617 170.995 45.1931 170.995 43.6557C170.995 42.1182 170.37 40.9129 169.119 40.1363C167.868 39.3596 166.064 38.771 163.706 38.3704C161.14 37.9382 159.074 37.209 157.509 36.1846C155.944 35.1603 155.163 33.5508 155.163 31.3562C155.163 29.1616 156.078 27.2447 157.907 25.8917C159.735 24.5388 161.877 23.8623 164.33 23.8623C167.218 23.8623 169.474 24.4861 171.104 25.7353C172.732 26.9846 173.682 28.8032 173.955 31.1893H170.995C170.706 29.6202 169.929 28.4904 168.661 27.8017C167.394 27.1129 166.15 26.7527 164.932 26.7211C163.264 26.6578 161.812 26.9846 160.576 27.7068C159.341 28.4272 158.723 29.492 158.723 30.9011C158.723 32.3103 159.304 33.4401 160.467 34.0955C161.631 34.7526 163.294 35.2481 165.46 35.5855C171.507 36.5308 174.531 39.133 174.531 43.3921C174.531 45.715 173.568 47.6794 171.643 49.2888C169.717 50.8983 167.327 51.7031 164.473 51.7031L164.475 51.7013Z" fill="#122B33"/>
<path d="M191.953 23.9556C195.625 23.9556 198.605 25.2453 200.891 27.8229C203.177 30.4023 204.319 33.6564 204.319 37.5887C204.319 41.521 203.156 44.8067 200.831 47.4494C198.505 50.092 195.497 51.4133 191.808 51.4133C187.702 51.4133 184.517 49.723 182.256 46.3442V63.5687H178.815V24.2192H181.87L182.256 28.8789C184.42 25.5967 187.653 23.9539 191.953 23.9539V23.9556ZM191.472 48.3631C194.295 48.3631 196.577 47.3299 198.318 45.2636C200.059 43.1973 200.928 40.6443 200.928 37.601C200.928 34.5578 200.066 31.9397 198.341 29.8892C196.616 27.8387 194.327 26.8144 191.472 26.8144C189.145 26.8144 187.153 27.5875 185.494 29.1319C183.834 30.6782 182.755 32.6601 182.257 35.0779V40.0978C182.754 42.5331 183.834 44.5186 185.494 46.056C187.153 47.5935 189.147 48.3613 191.472 48.3613V48.3631Z" fill="#122B33"/>
<path d="M219.069 51.6047C215.283 51.6047 212.184 50.271 209.769 47.6056C207.355 44.9383 206.147 41.6368 206.147 37.6957C206.147 33.7546 207.355 30.4496 209.769 27.7753C212.184 25.101 215.283 23.7639 219.069 23.7639C222.854 23.7639 225.999 25.101 228.405 27.7753C230.811 30.4496 232.014 33.7564 232.014 37.6957C232.014 41.6351 230.811 44.9383 228.405 47.6056C225.999 50.2728 222.886 51.6047 219.069 51.6047ZM212.2 45.3583C213.94 47.4246 216.226 48.4578 219.056 48.4578C221.886 48.4578 224.172 47.4246 225.913 45.3583C227.653 43.292 228.523 40.739 228.523 37.6957C228.523 34.6525 227.66 32.0344 225.936 29.9839C224.211 27.9334 221.921 26.9091 219.067 26.9091C216.212 26.9091 213.958 27.9334 212.21 29.9839C210.461 32.0344 209.588 34.605 209.588 37.6957C209.588 40.7864 210.457 43.2937 212.198 45.3583H212.2Z" fill="#122B33"/>
<path d="M249.603 23.9554L249.556 26.9108C246.828 26.6543 244.531 27.3114 242.662 28.8805C240.793 30.4496 239.859 32.7004 239.859 35.6311V51.2691H236.298V24.219H239.354L239.859 29.5763C240.228 28.7593 240.605 28.0635 240.99 27.4871C241.376 26.9108 241.928 26.3029 242.65 25.6615C243.371 25.022 244.325 24.5599 245.513 24.2805C246.699 24.0011 248.063 23.8922 249.603 23.9554Z" fill="#122B33"/>
<path d="M263.534 51.3167C258.801 51.3167 256.436 49.0677 256.436 44.5661L256.483 26.8618H252.344V24.1226H256.483V14.3708H259.924V24.1243H265.987V26.911L259.78 26.8636V44.0882C259.78 44.7453 259.811 45.2689 259.877 45.6625C259.94 46.0543 260.081 46.4707 260.297 46.9118C260.514 47.3528 260.894 47.6814 261.439 47.8975C261.985 48.1136 262.682 48.2225 263.532 48.2225H266.395V51.322H263.532L263.534 51.3167Z" fill="#122B33"/>
<path d="M28.8476 66.6881L1.87714 51.1169C1.26976 50.766 0.895508 50.1181 0.895508 49.4162V18.2738C0.895508 17.572 1.26976 16.9241 1.87714 16.5732L28.8476 1.00197C29.455 0.651036 30.2035 0.651036 30.8109 1.00197L57.7813 16.5732C58.3887 16.9241 58.7629 17.572 58.7629 18.2738V49.4162C58.7629 50.1181 58.3887 50.766 57.7813 51.1169L30.8109 66.6881C30.2035 67.0391 29.455 67.0391 28.8476 66.6881ZM6.78532 48.2837L28.8476 61.0216C29.455 61.3726 30.2035 61.3726 30.8109 61.0216L52.8731 48.2837C53.4805 47.9327 53.8547 47.2849 53.8547 46.583V21.1083C53.8547 20.4064 53.4805 19.7586 52.8731 19.4076L30.8109 6.6697C30.2035 6.31876 29.455 6.31876 28.8476 6.6697L6.78532 19.4076C6.17793 19.7586 5.80369 20.4064 5.80369 21.1083V46.583C5.80369 47.2849 6.17793 47.9327 6.78532 48.2837Z" fill="#122B33"/>
<path d="M28.8479 11.1758L10.6877 21.6609C10.0803 22.0118 9.70605 22.6597 9.70605 23.3616V43.198C9.70605 44.6005 10.4546 45.8975 11.6693 46.5981L13.878 47.873C14.2056 48.062 14.6142 47.8264 14.6142 47.4485V26.1961C14.6142 25.4942 14.9885 24.8463 15.5959 24.4954L28.8479 16.8448C29.4553 16.4938 30.2038 16.4938 30.8112 16.8448L44.0633 24.4954C44.6707 24.8463 45.0449 25.4942 45.0449 26.1961V41.4985C45.0449 42.2004 44.6707 42.8483 44.0633 43.1992L30.8112 50.8498C30.2038 51.2008 29.4553 51.2008 28.8479 50.8498L24.4306 48.3C23.8232 47.9491 23.449 47.3012 23.449 46.5994V31.2969C23.449 30.595 23.8232 29.9471 24.4306 29.5962L28.8479 27.0464C29.4553 26.6955 30.2038 26.6955 30.8112 27.0464L35.2286 29.5962C35.836 29.9471 36.2102 30.595 36.2102 31.2969V36.3977C36.2102 37.0996 35.836 37.7475 35.2286 38.0984L33.0199 39.3733C32.6923 39.5623 32.2837 39.3267 32.2837 38.9487V35.8112V33.5988C32.2837 32.897 31.9094 32.2491 31.302 31.8981L30.3204 31.3313C30.0161 31.1558 29.6431 31.1558 29.3388 31.3313L28.1117 32.0393C27.6565 32.3018 27.3755 32.789 27.3755 33.3141V33.8455V44.3526C27.3755 45.057 27.7534 45.7073 28.3645 46.057L28.8381 46.327C29.4443 46.673 30.1891 46.6718 30.794 46.322L40.1368 40.928C40.7441 40.577 41.1184 39.9292 41.1184 39.2273V28.4587C41.1184 27.7569 40.7441 27.109 40.1368 26.7581L30.8112 21.3738C30.2038 21.0229 29.4553 21.0229 28.8479 21.3738L19.5224 26.7581C18.915 27.109 18.5408 27.7569 18.5408 28.4587V49.4277C18.5408 50.1296 18.915 50.7775 19.5224 51.1284L28.8479 56.5127C29.4553 56.8636 30.2038 56.8636 30.8112 56.5127L48.9715 46.0276C49.5789 45.6766 49.9531 45.0287 49.9531 44.3269V23.3579C49.9531 22.6561 49.5789 22.0082 48.9715 21.6572L30.8112 11.1721C30.2038 10.8212 29.4553 10.8212 28.8479 11.1721V11.1758Z" fill="#122B33"/>
</svg>
