<svg width="267" height="67" viewBox="0 0 267 67" fill="none" xmlns="http://www.w3.org/2000/svg">
<path d="M28.7569 66.4661L1.78656 50.895C1.17918 50.5441 0.804932 49.8962 0.804932 49.1943V18.0521C0.804932 17.3502 1.17918 16.7023 1.78656 16.3514L28.7569 0.78029C29.3642 0.429357 30.1127 0.429357 30.7201 0.78029L57.6904 16.3514C58.2978 16.7023 58.6721 17.3502 58.6721 18.0521V49.1943C58.6721 49.8962 58.2978 50.5441 57.6904 50.895L30.7201 66.4661C30.1127 66.817 29.3642 66.817 28.7569 66.4661ZM6.69471 48.0617L28.7569 60.7996C29.3642 61.1506 30.1127 61.1506 30.7201 60.7996L52.7823 48.0617C53.3897 47.7108 53.7639 47.0629 53.7639 46.3611V20.8865C53.7639 20.1847 53.3897 19.5368 52.7823 19.1859L30.7201 6.44799C30.1127 6.09705 29.3642 6.09705 28.7569 6.44799L6.69471 19.1859C6.08733 19.5368 5.71308 20.1847 5.71308 20.8865V46.3611C5.71308 47.0629 6.08733 47.7108 6.69471 48.0617Z" fill="url(#paint0_linear_1401_1288)"/>
<path d="M28.7565 10.9539L10.5964 21.4389C9.98899 21.7899 9.61475 22.4377 9.61475 23.1396V42.9759C9.61475 44.3784 10.3632 45.6754 11.578 46.376L13.7867 47.6509C14.1143 47.8399 14.5229 47.6043 14.5229 47.2264V25.9741C14.5229 25.2722 14.8971 24.6243 15.5045 24.2734L28.7565 16.6228C29.3639 16.2719 30.1124 16.2719 30.7198 16.6228L43.9718 24.2734C44.5792 24.6243 44.9534 25.2722 44.9534 25.9741V41.2765C44.9534 41.9783 44.5792 42.6262 43.9718 42.9771L30.7198 50.6277C30.1124 50.9786 29.3639 50.9786 28.7565 50.6277L24.3392 48.0779C23.7318 47.727 23.3576 47.0791 23.3576 46.3773V31.0749C23.3576 30.373 23.7318 29.7251 24.3392 29.3742L28.7565 26.8244C29.3639 26.4735 30.1124 26.4735 30.7198 26.8244L35.1371 29.3742C35.7445 29.7251 36.1188 30.373 36.1188 31.0749V36.1757C36.1188 36.8775 35.7445 37.5254 35.1371 37.8763L32.9285 39.1512C32.6008 39.3402 32.1922 39.1046 32.1922 38.7267V35.5891V33.3768C32.1922 32.6749 31.818 32.0271 31.2106 31.6761L30.229 31.1092C29.9247 30.9338 29.5517 30.9338 29.2474 31.1092L28.0203 31.8172C27.5651 32.0798 27.2841 32.5669 27.2841 33.0921V33.6234V44.1306C27.2841 44.8349 27.662 45.4852 28.2731 45.8349L28.7467 46.1049C29.3529 46.4509 30.0977 46.4496 30.7026 46.0999L40.0453 40.7059C40.6527 40.355 41.0269 39.7071 41.0269 39.0052V28.2367C41.0269 27.5349 40.6527 26.887 40.0453 26.5361L30.7198 21.1518C30.1124 20.8009 29.3639 20.8009 28.7565 21.1518L19.431 26.5361C18.8237 26.887 18.4494 27.5349 18.4494 28.2367V49.2056C18.4494 49.9074 18.8237 50.5553 19.431 50.9063L28.7565 56.2905C29.3639 56.6414 30.1124 56.6414 30.7198 56.2905L48.88 45.8055C49.4873 45.4545 49.8616 44.8066 49.8616 44.1048V23.1359C49.8616 22.4341 49.4873 21.7862 48.88 21.4352L30.7198 10.9502C30.1124 10.5993 29.3639 10.5993 28.7565 10.9502V10.9539Z" fill="url(#paint1_linear_1401_1288)"/>
<path d="M93.5491 14.1492C96.3402 14.1492 98.7302 15.214 100.719 17.3435C102.708 19.4731 103.702 21.9488 103.702 24.7671C103.702 27.5855 102.708 30.1051 100.719 32.2259C98.7302 34.3484 96.3402 35.4097 93.5491 35.4097H82.0711V51.0476H78.7026V14.1492H93.5491ZM93.3572 32.5509C95.3617 32.5509 97.0776 31.7866 98.5067 30.2562C99.9339 28.7276 100.648 26.9125 100.648 24.8146C100.648 22.7166 99.9269 20.9473 98.4838 19.4098C97.0407 17.8724 95.3318 17.1046 93.359 17.1046H82.0711V32.5509H93.3555H93.3572Z" fill="black"/>
<path d="M114.145 51.2391C111.546 51.2391 109.385 50.5029 107.66 49.0287C105.935 47.5563 105.073 45.6903 105.073 43.4307C105.073 38.0822 108.802 35.1584 116.261 34.6629L123.311 34.2307V33.1975C123.311 31.0363 122.661 29.3865 121.363 28.2496C120.064 27.1128 118.283 26.5435 116.021 26.5435C114.048 26.5435 112.44 27.1005 111.197 28.2127C109.955 29.3267 109.228 30.7394 109.02 32.4525H105.677C105.934 29.9856 106.968 27.893 108.781 26.171C110.594 24.4491 113.056 23.5881 116.167 23.5881C119.279 23.5881 121.922 24.4649 123.758 26.2185C125.595 27.972 126.512 30.3458 126.512 33.3416L126.559 44.4164C126.559 45.8572 126.707 46.8623 127.005 47.4315C127.302 48.0008 127.811 48.2679 128.532 48.2363V51.0476C128.034 51.0476 127.578 51.0002 127.161 50.9035C124.932 50.4396 123.712 49.0779 123.504 46.8201C122.783 48.0694 121.551 49.1183 119.81 49.967C118.07 50.8157 116.181 51.2409 114.143 51.2409L114.145 51.2391ZM114.29 48.2363C116.614 48.2363 118.7 47.5317 120.546 46.1225C122.39 44.7134 123.312 43.0881 123.312 41.2467V37.1632L116.262 37.6675C113.246 37.859 111.153 38.4723 109.983 39.5054C108.813 40.5386 108.227 41.8634 108.227 43.4817C108.227 44.9225 108.844 46.0769 110.08 46.9413C111.315 47.8058 112.718 48.238 114.291 48.238L114.29 48.2363Z" fill="black"/>
<path d="M141.526 51.4796C138.27 51.4796 135.771 50.6345 134.031 48.9459C132.29 47.2556 131.356 45.4019 131.227 43.3848H134.331C134.523 44.6973 135.314 45.9185 136.702 47.0483C138.089 48.1781 139.701 48.7421 141.538 48.7421C143.376 48.7421 144.919 48.2413 146.17 47.2416C147.422 46.24 148.046 44.9714 148.046 43.434C148.046 41.8966 147.422 40.6912 146.17 39.9146C144.919 39.138 143.115 38.5493 140.757 38.1487C138.191 37.7165 136.125 36.9873 134.56 35.9629C132.996 34.9386 132.214 33.3291 132.214 31.1345C132.214 28.9399 133.129 27.023 134.958 25.67C136.787 24.3171 138.928 23.6406 141.382 23.6406C144.27 23.6406 146.526 24.2644 148.155 25.5137C149.783 26.7629 150.734 28.5815 151.006 30.9676H148.046C147.758 29.3985 146.98 28.2687 145.713 27.58C144.446 26.8912 143.201 26.531 141.983 26.4994C140.315 26.4361 138.863 26.7629 137.628 27.4851C136.392 28.2055 135.775 29.2703 135.775 30.6794C135.775 32.0886 136.355 33.2184 137.519 33.8738C138.682 34.5309 140.345 35.0264 142.511 35.3638C148.558 36.3091 151.582 38.9113 151.582 43.1704C151.582 45.4933 150.619 47.4577 148.694 49.0672C146.769 50.6766 144.379 51.4814 141.524 51.4814L141.526 51.4796Z" fill="black"/>
<path d="M164.385 51.4796C161.129 51.4796 158.63 50.6345 156.889 48.9459C155.149 47.2556 154.214 45.4019 154.086 43.3848H157.19C157.382 44.6973 158.172 45.9185 159.561 47.0483C160.948 48.1781 162.56 48.7421 164.397 48.7421C166.234 48.7421 167.778 48.2413 169.029 47.2416C170.28 46.24 170.905 44.9714 170.905 43.434C170.905 41.8966 170.28 40.6912 169.029 39.9146C167.778 39.138 165.974 38.5493 163.615 38.1487C161.05 37.7165 158.983 36.9873 157.419 35.9629C155.854 34.9386 155.073 33.3291 155.073 31.1345C155.073 28.9399 155.988 27.023 157.817 25.67C159.645 24.3171 161.787 23.6406 164.24 23.6406C167.128 23.6406 169.384 24.2644 171.014 25.5137C172.642 26.7629 173.592 28.5815 173.865 30.9676H170.905C170.616 29.3985 169.838 28.2687 168.571 27.58C167.304 26.8912 166.06 26.531 164.842 26.4994C163.174 26.4361 161.722 26.7629 160.486 27.4851C159.251 28.2055 158.633 29.2703 158.633 30.6794C158.633 32.0886 159.214 33.2184 160.377 33.8738C161.541 34.5309 163.204 35.0264 165.37 35.3638C171.417 36.3091 174.441 38.9113 174.441 43.1704C174.441 45.4933 173.478 47.4577 171.553 49.0672C169.627 50.6766 167.237 51.4814 164.383 51.4814L164.385 51.4796Z" fill="black"/>
<path d="M191.862 23.7339C195.535 23.7339 198.515 25.0236 200.801 27.6012C203.087 30.1806 204.229 33.4347 204.229 37.367C204.229 41.2993 203.066 44.5851 200.741 47.2277C198.414 49.8703 195.407 51.1916 191.718 51.1916C187.612 51.1916 184.427 49.5013 182.165 46.1225V63.347H178.725V23.9975H181.78L182.165 28.6572C184.33 25.375 187.563 23.7322 191.862 23.7322V23.7339ZM191.382 48.1414C194.205 48.1414 196.487 47.1082 198.228 45.0419C199.968 42.9756 200.838 40.4226 200.838 37.3793C200.838 34.3361 199.975 31.7181 198.251 29.6676C196.526 27.6171 194.236 26.5927 191.382 26.5927C189.055 26.5927 187.063 27.3658 185.403 28.9103C183.744 30.4565 182.665 32.4385 182.167 34.8562V39.8761C182.663 42.3114 183.744 44.2969 185.403 45.8343C187.063 47.3718 189.057 48.1396 191.382 48.1396V48.1414Z" fill="black"/>
<path d="M218.978 51.383C215.193 51.383 212.094 50.0494 209.679 47.3839C207.264 44.7167 206.057 41.4151 206.057 37.474C206.057 33.5329 207.264 30.2279 209.679 27.5536C212.094 24.8794 215.193 23.5422 218.978 23.5422C222.764 23.5422 225.909 24.8794 228.314 27.5536C230.72 30.2279 231.924 33.5347 231.924 37.474C231.924 41.4134 230.72 44.7167 228.314 47.3839C225.909 50.0511 222.795 51.383 218.978 51.383ZM212.109 45.1366C213.85 47.2029 216.136 48.2361 218.966 48.2361C221.796 48.2361 224.082 47.2029 225.822 45.1366C227.563 43.0703 228.432 40.5173 228.432 37.474C228.432 34.4308 227.57 31.8128 225.845 29.7623C224.121 27.7118 221.831 26.6874 218.976 26.6874C216.122 26.6874 213.868 27.7118 212.12 29.7623C210.371 31.8128 209.498 34.3833 209.498 37.474C209.498 40.5647 210.367 43.0721 212.108 45.1366H212.109Z" fill="black"/>
<path d="M249.513 23.7337L249.465 26.6891C246.737 26.4326 244.441 27.0897 242.572 28.6588C240.703 30.2279 239.768 32.4787 239.768 35.4095V51.0474H236.208V23.9973H239.263L239.768 29.3546C240.138 28.5376 240.514 27.8418 240.9 27.2655C241.285 26.6891 241.838 26.0812 242.559 25.4399C243.281 24.8003 244.235 24.3382 245.423 24.0588C246.609 23.7794 247.973 23.6705 249.513 23.7337Z" fill="black"/>
<path d="M263.443 51.0951C258.711 51.0951 256.346 48.846 256.346 44.3444L256.393 26.6402H252.254V23.9009H256.393V14.1492H259.834V23.9027H265.897V26.6894L259.689 26.6419V43.8665C259.689 44.5236 259.721 45.0472 259.786 45.4408C259.85 45.8326 259.99 46.2491 260.207 46.6901C260.423 47.1311 260.803 47.4597 261.349 47.6758C261.895 47.8919 262.591 48.0009 263.442 48.0009H266.305V51.1003H263.442L263.443 51.0951Z" fill="black"/>
<defs>
<linearGradient id="paint0_linear_1401_1288" x1="13.1406" y1="1.89789" x2="43.2173" y2="65.6869" gradientUnits="userSpaceOnUse">
<stop stop-color="#4A47D3"/>
<stop offset="1" stop-color="#6CB6AD"/>
</linearGradient>
<linearGradient id="paint1_linear_1401_1288" x1="18.1943" y1="11.6435" x2="38.9759" y2="55.8959" gradientUnits="userSpaceOnUse">
<stop stop-color="#4A47D3"/>
<stop offset="1" stop-color="#6CB6AD"/>
</linearGradient>
</defs>
</svg>
