<svg width="267" height="67" viewBox="0 0 267 67" fill="none" xmlns="http://www.w3.org/2000/svg">
<path d="M93.4609 14.2598C96.2521 14.2598 98.642 15.3245 100.631 17.4541C102.619 19.5837 103.614 22.0594 103.614 24.8777C103.614 27.6961 102.619 30.2157 100.631 32.3365C98.642 34.459 96.2521 35.5203 93.4609 35.5203H81.9829V51.1582H78.6145V14.2598H93.4609ZM93.2691 32.6615C95.2736 32.6615 96.9895 31.8972 98.4185 30.3668C99.8458 28.8382 100.56 27.0231 100.56 24.9252C100.56 22.8272 99.8388 21.0579 98.3956 19.5204C96.9525 17.983 95.2437 17.2152 93.2709 17.2152H81.9829V32.6615H93.2673H93.2691Z" fill="#4A47D3"/>
<path d="M114.057 51.3497C111.458 51.3497 109.297 50.6135 107.572 49.1393C105.847 47.6669 104.985 45.8009 104.985 43.5413C104.985 38.1928 108.714 35.269 116.172 34.7735L123.223 34.3413V33.3081C123.223 31.1469 122.573 29.4971 121.274 28.3602C119.976 27.2234 118.195 26.6541 115.933 26.6541C113.96 26.6541 112.352 27.2111 111.109 28.3233C109.867 29.4373 109.14 30.85 108.932 32.5631H105.589C105.845 30.0962 106.88 28.0035 108.693 26.2816C110.506 24.5597 112.968 23.6987 116.079 23.6987C119.191 23.6987 121.834 24.5755 123.67 26.3291C125.507 28.0826 126.424 30.4564 126.424 33.4522L126.471 44.527C126.471 45.9678 126.619 46.9729 126.917 47.5421C127.214 48.1114 127.723 48.3785 128.444 48.3469V51.1582C127.946 51.1582 127.49 51.1108 127.073 51.0141C124.843 50.5502 123.624 49.1885 123.416 46.9307C122.695 48.18 121.463 49.2289 119.722 50.0776C117.982 50.9263 116.093 51.3515 114.055 51.3515L114.057 51.3497ZM114.201 48.3469C116.526 48.3469 118.612 47.6423 120.458 46.2331C122.302 44.824 123.224 43.1987 123.224 41.3573V37.2738L116.174 37.7781C113.158 37.9696 111.065 38.5829 109.895 39.616C108.725 40.6492 108.139 41.974 108.139 43.5923C108.139 45.0331 108.756 46.1874 109.992 47.0519C111.227 47.9164 112.63 48.3486 114.203 48.3486L114.201 48.3469Z" fill="#4A47D3"/>
<path d="M141.438 51.5902C138.182 51.5902 135.683 50.7451 133.942 49.0565C132.202 47.3662 131.267 45.5125 131.139 43.4954H134.243C134.435 44.8079 135.225 46.0291 136.614 47.1589C138 48.2887 139.613 48.8527 141.45 48.8527C143.287 48.8527 144.831 48.3519 146.082 47.3522C147.333 46.3506 147.958 45.082 147.958 43.5446C147.958 42.0072 147.333 40.8018 146.082 40.0252C144.831 39.2486 143.027 38.6599 140.668 38.2593C138.103 37.8271 136.036 37.0979 134.472 36.0735C132.907 35.0492 132.126 33.4397 132.126 31.2451C132.126 29.0505 133.041 27.1336 134.87 25.7806C136.698 24.4277 138.84 23.7512 141.293 23.7512C144.181 23.7512 146.437 24.375 148.067 25.6243C149.695 26.8735 150.645 28.6921 150.918 31.0782H147.958C147.669 29.5091 146.891 28.3793 145.624 27.6906C144.357 27.0018 143.113 26.6416 141.895 26.61C140.227 26.5467 138.775 26.8735 137.539 27.5957C136.304 28.3161 135.686 29.3809 135.686 30.79C135.686 32.1992 136.267 33.329 137.43 33.9844C138.594 34.6415 140.257 35.137 142.423 35.4744C148.47 36.4197 151.494 39.0219 151.494 43.281C151.494 45.6039 150.531 47.5683 148.606 49.1778C146.68 50.7872 144.29 51.592 141.436 51.592L141.438 51.5902Z" fill="#4A47D3"/>
<path d="M164.296 51.5902C161.041 51.5902 158.542 50.7451 156.801 49.0565C155.061 47.3662 154.126 45.5125 153.998 43.4954H157.102C157.294 44.8079 158.084 46.0291 159.473 47.1589C160.859 48.2887 162.471 48.8527 164.309 48.8527C166.146 48.8527 167.689 48.3519 168.941 47.3522C170.192 46.3506 170.817 45.082 170.817 43.5446C170.817 42.0072 170.192 40.8018 168.941 40.0252C167.689 39.2486 165.886 38.6599 163.527 38.2593C160.961 37.8271 158.895 37.0979 157.331 36.0735C155.766 35.0492 154.985 33.4397 154.985 31.2451C154.985 29.0505 155.9 27.1336 157.729 25.7806C159.557 24.4277 161.699 23.7512 164.152 23.7512C167.04 23.7512 169.296 24.375 170.926 25.6243C172.554 26.8735 173.504 28.6921 173.777 31.0782H170.817C170.528 29.5091 169.75 28.3793 168.483 27.6906C167.216 27.0018 165.972 26.6416 164.754 26.61C163.086 26.5467 161.634 26.8735 160.398 27.5957C159.163 28.3161 158.545 29.3809 158.545 30.79C158.545 32.1992 159.126 33.329 160.289 33.9844C161.452 34.6415 163.116 35.137 165.282 35.4744C171.329 36.4197 174.352 39.0219 174.352 43.281C174.352 45.6039 173.39 47.5683 171.464 49.1778C169.539 50.7872 167.149 51.592 164.295 51.592L164.296 51.5902Z" fill="#4A47D3"/>
<path d="M191.774 23.8445C195.447 23.8445 198.426 25.1342 200.712 27.7118C202.998 30.2912 204.141 33.5453 204.141 37.4776C204.141 41.4099 202.977 44.6957 200.652 47.3383C198.326 49.9809 195.318 51.3022 191.629 51.3022C187.524 51.3022 184.338 49.6119 182.077 46.2331V63.4576H178.636V24.1081H181.691L182.077 28.7678C184.241 25.4856 187.474 23.8428 191.774 23.8428V23.8445ZM191.293 48.252C194.116 48.252 196.399 47.2188 198.139 45.1525C199.88 43.0862 200.749 40.5332 200.749 37.4899C200.749 34.4467 199.887 31.8286 198.162 29.7782C196.437 27.7277 194.148 26.7033 191.293 26.7033C188.967 26.7033 186.975 27.4764 185.315 29.0209C183.655 30.5671 182.577 32.549 182.079 34.9668V39.9867C182.575 42.422 183.655 44.4075 185.315 45.9449C186.975 47.4824 188.969 48.2502 191.293 48.2502V48.252Z" fill="#4A47D3"/>
<path d="M218.89 51.4938C215.104 51.4938 212.005 50.1602 209.591 47.4947C207.176 44.8275 205.969 41.526 205.969 37.5849C205.969 33.6438 207.176 30.3387 209.591 27.6645C212.005 24.9902 215.104 23.6531 218.89 23.6531C222.675 23.6531 225.82 24.9902 228.226 27.6645C230.632 30.3387 231.836 33.6455 231.836 37.5849C231.836 41.5242 230.632 44.8275 228.226 47.4947C225.82 50.162 222.707 51.4938 218.89 51.4938ZM212.021 45.2474C213.762 47.3138 216.048 48.3469 218.878 48.3469C221.707 48.3469 223.994 47.3138 225.734 45.2474C227.475 43.1811 228.344 40.6281 228.344 37.5849C228.344 34.5416 227.482 31.9236 225.757 29.8731C224.032 27.8226 221.743 26.7982 218.888 26.7982C216.034 26.7982 213.779 27.8226 212.032 29.8731C210.282 31.9236 209.409 34.4942 209.409 37.5849C209.409 40.6756 210.279 43.1829 212.019 45.2474H212.021Z" fill="#4A47D3"/>
<path d="M249.424 23.8443L249.377 26.7997C246.649 26.5432 244.352 27.2003 242.483 28.7694C240.614 30.3385 239.68 32.5893 239.68 35.5201V51.158H236.12V24.1079H239.175L239.68 29.4652C240.049 28.6482 240.426 27.9524 240.811 27.376C241.197 26.7997 241.75 26.1918 242.471 25.5505C243.193 24.9109 244.146 24.4488 245.334 24.1694C246.521 23.89 247.884 23.7811 249.424 23.8443Z" fill="#4A47D3"/>
<path d="M263.355 51.2057C258.623 51.2057 256.258 48.9566 256.258 44.455L256.305 26.7508H252.166V24.0115H256.305V14.2598H259.746V24.0133H265.809V26.8L259.602 26.7525V43.9771C259.602 44.6342 259.633 45.1578 259.698 45.5514C259.762 45.9432 259.902 46.3597 260.119 46.8007C260.335 47.2417 260.716 47.5703 261.261 47.7864C261.807 48.0025 262.504 48.1115 263.354 48.1115H266.217V51.2109H263.354L263.355 51.2057Z" fill="#4A47D3"/>
<path d="M28.6694 66.577L1.69892 51.0058C1.09153 50.6549 0.717285 50.007 0.717285 49.3052V18.1628C0.717285 17.4609 1.09153 16.813 1.69892 16.4621L28.6694 0.890887C29.2767 0.539952 30.0252 0.539952 30.6326 0.890887L57.6031 16.4621C58.2105 16.813 58.5847 17.4609 58.5847 18.1628V49.3052C58.5847 50.007 58.2105 50.6549 57.6031 51.0058L30.6326 66.577C30.0252 66.928 29.2767 66.928 28.6694 66.577ZM6.6071 48.1726L28.6694 60.9105C29.2767 61.2615 30.0252 61.2615 30.6326 60.9105L52.6949 48.1726C53.3023 47.8216 53.6765 47.1738 53.6765 46.4719V20.9972C53.6765 20.2954 53.3023 19.6475 52.6949 19.2966L30.6326 6.55861C30.0252 6.20768 29.2767 6.20768 28.6694 6.55861L6.6071 19.2966C5.99971 19.6475 5.62546 20.2954 5.62546 20.9972V46.4719C5.62546 47.1738 5.99971 47.8216 6.6071 48.1726Z" fill="#4A47D3"/>
<path d="M28.6697 11.0642L10.5095 21.5493C9.90208 21.9003 9.52783 22.5482 9.52783 23.25V43.0864C9.52783 44.4889 10.2763 45.7859 11.4911 46.4866L13.6998 47.7615C14.0274 47.9504 14.436 47.7148 14.436 47.3369V26.0845C14.436 25.3826 14.8103 24.7347 15.4176 24.3838L28.6697 16.7332C29.2771 16.3823 30.0256 16.3823 30.633 16.7332L43.8851 24.3838C44.4925 24.7347 44.8667 25.3826 44.8667 26.0845V41.387C44.8667 42.0888 44.4925 42.7367 43.8851 43.0877L30.633 50.7383C30.0256 51.0892 29.2771 51.0892 28.6697 50.7383L24.2524 48.1885C23.645 47.8375 23.2707 47.1897 23.2707 46.4878V31.1853C23.2707 30.4835 23.645 29.8356 24.2524 29.4846L28.6697 26.9348C29.2771 26.5839 30.0256 26.5839 30.633 26.9348L35.0504 29.4846C35.6577 29.8356 36.032 30.4835 36.032 31.1853V36.2861C36.032 36.988 35.6577 37.6359 35.0504 37.9868L32.8417 39.2617C32.5141 39.4507 32.1054 39.2151 32.1054 38.8372V35.6996V33.4873C32.1054 32.7854 31.7312 32.1375 31.1238 31.7866L30.1422 31.2197C29.8379 31.0442 29.4649 31.0442 29.1605 31.2197L27.9335 31.9277C27.4783 32.1903 27.1973 32.6774 27.1973 33.2026V33.7339V44.2411C27.1973 44.9454 27.5752 45.5957 28.1863 45.9454L28.6599 46.2154C29.2661 46.5614 30.0109 46.5602 30.6158 46.2105L39.9585 40.8164C40.5659 40.4655 40.9402 39.8176 40.9402 39.1157V28.3472C40.9402 27.6453 40.5659 26.9974 39.9585 26.6465L30.633 21.2622C30.0256 20.9113 29.2771 20.9113 28.6697 21.2622L19.3442 26.6465C18.7368 26.9974 18.3626 27.6453 18.3626 28.3472V49.3161C18.3626 50.018 18.7368 50.6659 19.3442 51.0168L28.6697 56.4011C29.2771 56.752 30.0256 56.752 30.633 56.4011L48.7933 45.916C49.4006 45.5651 49.7749 44.9172 49.7749 44.2153V23.2463C49.7749 22.5445 49.4006 21.8966 48.7933 21.5457L30.633 11.0606C30.0256 10.7096 29.2771 10.7096 28.6697 11.0606V11.0642Z" fill="#4A47D3"/>
</svg>
