<svg width="267" height="67" viewBox="0 0 267 67" fill="none" xmlns="http://www.w3.org/2000/svg">
<path d="M93.6394 14.2598C96.4306 14.2598 98.8205 15.3245 100.809 17.4541C102.798 19.5837 103.792 22.0594 103.792 24.8777C103.792 27.6961 102.798 30.2157 100.809 32.3365C98.8205 34.459 96.4306 35.5203 93.6394 35.5203H82.1614V51.1582H78.793V14.2598H93.6394ZM93.4476 32.6615C95.4521 32.6615 97.168 31.8972 98.597 30.3668C100.024 28.8382 100.739 27.0231 100.739 24.9252C100.739 22.8272 100.017 21.0579 98.5741 19.5204C97.131 17.983 95.4222 17.2152 93.4493 17.2152H82.1614V32.6615H93.4458H93.4476Z" fill="#C1F6FF"/>
<path d="M114.236 51.3497C111.636 51.3497 109.475 50.6135 107.751 49.1393C106.026 47.6669 105.164 45.8009 105.164 43.5413C105.164 38.1928 108.893 35.269 116.351 34.7735L123.401 34.3413V33.3081C123.401 31.1469 122.752 29.4971 121.453 28.3602C120.154 27.2234 118.373 26.6541 116.112 26.6541C114.139 26.6541 112.53 27.2111 111.288 28.3233C110.046 29.4373 109.319 30.85 109.111 32.5631H105.767C106.024 30.0962 107.059 28.0035 108.872 26.2816C110.684 24.5597 113.146 23.6987 116.258 23.6987C119.369 23.6987 122.013 24.5755 123.848 26.3291C125.686 28.0826 126.603 30.4564 126.603 33.4522L126.65 44.527C126.65 45.9678 126.798 46.9729 127.095 47.5421C127.393 48.1114 127.901 48.3785 128.623 48.3469V51.1582C128.125 51.1582 127.669 51.1108 127.252 51.0141C125.022 50.5502 123.803 49.1885 123.595 46.9307C122.873 48.18 121.641 49.2289 119.901 50.0776C118.16 50.9263 116.272 51.3515 114.234 51.3515L114.236 51.3497ZM114.38 48.3469C116.705 48.3469 118.79 47.6423 120.637 46.2331C122.481 44.824 123.403 43.1987 123.403 41.3573V37.2738L116.353 37.7781C113.336 37.9696 111.244 38.5829 110.074 39.616C108.903 40.6492 108.317 41.974 108.317 43.5923C108.317 45.0331 108.935 46.1874 110.17 47.0519C111.406 47.9164 112.809 48.3486 114.382 48.3486L114.38 48.3469Z" fill="#C1F6FF"/>
<path d="M141.616 51.5902C138.36 51.5902 135.861 50.7451 134.121 49.0565C132.38 47.3662 131.446 45.5125 131.317 43.4954H134.422C134.614 44.8079 135.404 46.0291 136.792 47.1589C138.179 48.2887 139.791 48.8527 141.629 48.8527C143.466 48.8527 145.009 48.3519 146.261 47.3522C147.512 46.3506 148.137 45.082 148.137 43.5446C148.137 42.0072 147.512 40.8018 146.261 40.0252C145.009 39.2486 143.205 38.6599 140.847 38.2593C138.281 37.8271 136.215 37.0979 134.651 36.0735C133.086 35.0492 132.305 33.4397 132.305 31.2451C132.305 29.0505 133.22 27.1336 135.048 25.7806C136.877 24.4277 139.019 23.7512 141.472 23.7512C144.36 23.7512 146.616 24.375 148.246 25.6243C149.874 26.8735 150.824 28.6921 151.097 31.0782H148.137C147.848 29.5091 147.07 28.3793 145.803 27.6906C144.536 27.0018 143.292 26.6416 142.074 26.61C140.405 26.5467 138.954 26.8735 137.718 27.5957C136.483 28.3161 135.865 29.3809 135.865 30.79C135.865 32.1992 136.446 33.329 137.609 33.9844C138.772 34.6415 140.435 35.137 142.602 35.4744C148.649 36.4197 151.672 39.0219 151.672 43.281C151.672 45.6039 150.71 47.5683 148.784 49.1778C146.859 50.7872 144.469 51.592 141.614 51.592L141.616 51.5902Z" fill="#C1F6FF"/>
<path d="M164.475 51.5902C161.219 51.5902 158.72 50.7451 156.979 49.0565C155.239 47.3662 154.304 45.5125 154.176 43.4954H157.28C157.472 44.8079 158.262 46.0291 159.651 47.1589C161.038 48.2887 162.65 48.8527 164.487 48.8527C166.324 48.8527 167.868 48.3519 169.119 47.3522C170.37 46.3506 170.995 45.082 170.995 43.5446C170.995 42.0072 170.37 40.8018 169.119 40.0252C167.868 39.2486 166.064 38.6599 163.706 38.2593C161.14 37.8271 159.074 37.0979 157.509 36.0735C155.944 35.0492 155.163 33.4397 155.163 31.2451C155.163 29.0505 156.078 27.1336 157.907 25.7806C159.735 24.4277 161.877 23.7512 164.33 23.7512C167.218 23.7512 169.474 24.375 171.104 25.6243C172.732 26.8735 173.682 28.6921 173.955 31.0782H170.995C170.706 29.5091 169.929 28.3793 168.661 27.6906C167.394 27.0018 166.15 26.6416 164.932 26.61C163.264 26.5467 161.812 26.8735 160.576 27.5957C159.341 28.3161 158.723 29.3809 158.723 30.79C158.723 32.1992 159.304 33.329 160.467 33.9844C161.631 34.6415 163.294 35.137 165.46 35.4744C171.507 36.4197 174.531 39.0219 174.531 43.281C174.531 45.6039 173.568 47.5683 171.643 49.1778C169.717 50.7872 167.327 51.592 164.473 51.592L164.475 51.5902Z" fill="#C1F6FF"/>
<path d="M191.953 23.8445C195.625 23.8445 198.605 25.1342 200.891 27.7118C203.177 30.2912 204.319 33.5453 204.319 37.4776C204.319 41.4099 203.156 44.6957 200.831 47.3383C198.505 49.9809 195.497 51.3022 191.808 51.3022C187.702 51.3022 184.517 49.6119 182.256 46.2331V63.4576H178.815V24.1081H181.87L182.256 28.7678C184.42 25.4856 187.653 23.8428 191.953 23.8428V23.8445ZM191.472 48.252C194.295 48.252 196.577 47.2188 198.318 45.1525C200.059 43.0862 200.928 40.5332 200.928 37.4899C200.928 34.4467 200.066 31.8286 198.341 29.7782C196.616 27.7277 194.327 26.7033 191.472 26.7033C189.145 26.7033 187.153 27.4764 185.494 29.0209C183.834 30.5671 182.755 32.549 182.257 34.9668V39.9867C182.754 42.422 183.834 44.4075 185.494 45.9449C187.153 47.4824 189.147 48.2502 191.472 48.2502V48.252Z" fill="#C1F6FF"/>
<path d="M219.069 51.4936C215.283 51.4936 212.184 50.16 209.769 47.4945C207.355 44.8273 206.147 41.5257 206.147 37.5846C206.147 33.6435 207.355 30.3385 209.769 27.6642C212.184 24.99 215.283 23.6528 219.069 23.6528C222.854 23.6528 225.999 24.99 228.405 27.6642C230.811 30.3385 232.014 33.6453 232.014 37.5846C232.014 41.524 230.811 44.8273 228.405 47.4945C225.999 50.1617 222.886 51.4936 219.069 51.4936ZM212.2 45.2472C213.94 47.3135 216.226 48.3467 219.056 48.3467C221.886 48.3467 224.172 47.3135 225.913 45.2472C227.653 43.1809 228.523 40.6279 228.523 37.5846C228.523 34.5414 227.66 31.9234 225.936 29.8729C224.211 27.8224 221.921 26.798 219.067 26.798C216.212 26.798 213.958 27.8224 212.21 29.8729C210.461 31.9234 209.588 34.4939 209.588 37.5846C209.588 40.6753 210.457 43.1826 212.198 45.2472H212.2Z" fill="#C1F6FF"/>
<path d="M249.603 23.8443L249.556 26.7997C246.828 26.5432 244.531 27.2003 242.662 28.7694C240.793 30.3385 239.859 32.5893 239.859 35.5201V51.158H236.298V24.1079H239.354L239.859 29.4652C240.228 28.6482 240.605 27.9524 240.99 27.376C241.376 26.7997 241.928 26.1918 242.65 25.5505C243.371 24.9109 244.325 24.4488 245.513 24.1694C246.699 23.89 248.063 23.7811 249.603 23.8443Z" fill="#C1F6FF"/>
<path d="M263.534 51.2057C258.801 51.2057 256.436 48.9566 256.436 44.455L256.483 26.7508H252.344V24.0115H256.483V14.2598H259.924V24.0133H265.987V26.8L259.78 26.7525V43.9771C259.78 44.6342 259.811 45.1578 259.877 45.5514C259.94 45.9432 260.081 46.3597 260.297 46.8007C260.514 47.2417 260.894 47.5703 261.439 47.7864C261.985 48.0025 262.682 48.1115 263.532 48.1115H266.395V51.2109H263.532L263.534 51.2057Z" fill="#C1F6FF"/>
<path d="M28.8476 66.577L1.87714 51.0058C1.26976 50.6549 0.895508 50.007 0.895508 49.3052V18.1628C0.895508 17.4609 1.26976 16.813 1.87714 16.4621L28.8476 0.890887C29.455 0.539952 30.2035 0.539952 30.8109 0.890887L57.7813 16.4621C58.3887 16.813 58.7629 17.4609 58.7629 18.1628V49.3052C58.7629 50.007 58.3887 50.6549 57.7813 51.0058L30.8109 66.577C30.2035 66.928 29.455 66.928 28.8476 66.577ZM6.78532 48.1726L28.8476 60.9105C29.455 61.2615 30.2035 61.2615 30.8109 60.9105L52.8731 48.1726C53.4805 47.8216 53.8547 47.1738 53.8547 46.4719V20.9972C53.8547 20.2954 53.4805 19.6475 52.8731 19.2966L30.8109 6.55861C30.2035 6.20768 29.455 6.20768 28.8476 6.55861L6.78532 19.2966C6.17793 19.6475 5.80369 20.2954 5.80369 20.9972V46.4719C5.80369 47.1738 6.17793 47.8216 6.78532 48.1726Z" fill="#C1F6FF"/>
<path d="M28.8479 11.0645L10.6877 21.5496C10.0803 21.9005 9.70605 22.5484 9.70605 23.2503V43.0867C9.70605 44.4892 10.4546 45.7862 11.6693 46.4868L13.878 47.7617C14.2056 47.9507 14.6142 47.7151 14.6142 47.3372V26.0847C14.6142 25.3829 14.9885 24.735 15.5959 24.3841L28.8479 16.7334C29.4553 16.3825 30.2038 16.3825 30.8112 16.7334L44.0633 24.3841C44.6707 24.735 45.0449 25.3829 45.0449 26.0847V41.3872C45.0449 42.0891 44.6707 42.737 44.0633 43.0879L30.8112 50.7385C30.2038 51.0895 29.4553 51.0895 28.8479 50.7385L24.4306 48.1887C23.8232 47.8378 23.449 47.1899 23.449 46.488V31.1856C23.449 30.4837 23.8232 29.8358 24.4306 29.4849L28.8479 26.9351C29.4553 26.5841 30.2038 26.5841 30.8112 26.9351L35.2286 29.4849C35.836 29.8358 36.2102 30.4837 36.2102 31.1856V36.2864C36.2102 36.9883 35.836 37.6361 35.2286 37.9871L33.0199 39.262C32.6923 39.4509 32.2837 39.2153 32.2837 38.8374V35.6999V33.4875C32.2837 32.7856 31.9094 32.1378 31.302 31.7868L30.3204 31.2199C30.0161 31.0445 29.6431 31.0445 29.3388 31.2199L28.1117 31.9279C27.6565 32.1905 27.3755 32.6776 27.3755 33.2028V33.7341V44.2413C27.3755 44.9456 27.7534 45.596 28.3645 45.9457L28.8381 46.2156C29.4443 46.5617 30.1891 46.5604 30.794 46.2107L40.1368 40.8166C40.7441 40.4657 41.1184 39.8178 41.1184 39.116V28.3474C41.1184 27.6455 40.7441 26.9977 40.1368 26.6467L30.8112 21.2625C30.2038 20.9115 29.4553 20.9115 28.8479 21.2625L19.5224 26.6467C18.915 26.9977 18.5408 27.6455 18.5408 28.3474V49.3164C18.5408 50.0182 18.915 50.6661 19.5224 51.0171L28.8479 56.4013C29.4553 56.7523 30.2038 56.7523 30.8112 56.4013L48.9715 45.9162C49.5789 45.5653 49.9531 44.9174 49.9531 44.2155V23.2466C49.9531 22.5447 49.5789 21.8968 48.9715 21.5459L30.8112 11.0608C30.2038 10.7099 29.4553 10.7099 28.8479 11.0608V11.0645Z" fill="#C1F6FF"/>
</svg>
