<svg width="267" height="68" viewBox="0 0 267 68" fill="none" xmlns="http://www.w3.org/2000/svg">
<path d="M28.6692 66.7557L1.69892 51.1845C1.09153 50.8336 0.717285 50.1857 0.717285 49.4839V18.3416C0.717285 17.6398 1.09153 16.9919 1.69892 16.641L28.6692 1.06984C29.2766 0.718907 30.0251 0.718907 30.6325 1.06984L57.6028 16.641C58.2102 16.9919 58.5844 17.6398 58.5844 18.3416V49.4839C58.5844 50.1857 58.2102 50.8336 57.6028 51.1845L30.6325 66.7557C30.0251 67.1066 29.2766 67.1066 28.6692 66.7557ZM6.60707 48.3513L28.6692 61.0892C29.2766 61.4401 30.0251 61.4401 30.6325 61.0892L52.6946 48.3513C53.302 48.0004 53.6763 47.3525 53.6763 46.6506V21.1761C53.6763 20.4742 53.302 19.8263 52.6946 19.4754L30.6325 6.73754C30.0251 6.3866 29.2766 6.3866 28.6692 6.73754L6.60707 19.4754C5.99968 19.8263 5.62544 20.4742 5.62544 21.1761V46.6506C5.62544 47.3525 5.99968 48.0004 6.60707 48.3513Z" fill="url(#paint0_linear_1465_962)"/>
<path d="M28.6691 11.2432L10.509 21.7282C9.90159 22.0792 9.52734 22.727 9.52734 23.4289V43.2652C9.52734 44.6677 10.2758 45.9647 11.4906 46.6653L13.6993 47.9402C14.0269 48.1292 14.4355 47.8936 14.4355 47.5157V26.2634C14.4355 25.5615 14.8097 24.9136 15.4171 24.5627L28.6691 16.9121C29.2765 16.5612 30.025 16.5612 30.6324 16.9121L43.8844 24.5627C44.4918 24.9136 44.866 25.5615 44.866 26.2634V41.5658C44.866 42.2676 44.4918 42.9155 43.8844 43.2664L30.6324 50.917C30.025 51.268 29.2765 51.268 28.6691 50.917L24.2518 48.3672C23.6444 48.0163 23.2702 47.3684 23.2702 46.6666V31.3642C23.2702 30.6623 23.6444 30.0144 24.2518 29.6635L28.6691 27.1137C29.2765 26.7628 30.025 26.7628 30.6324 27.1137L35.0497 29.6635C35.6571 30.0144 36.0314 30.6623 36.0314 31.3642V36.465C36.0314 37.1668 35.6571 37.8147 35.0497 38.1657L32.8411 39.4405C32.5134 39.6295 32.1048 39.3939 32.1048 39.016V35.8785V33.6661C32.1048 32.9642 31.7306 32.3164 31.1232 31.9654L30.1416 31.3985C29.8373 31.2231 29.4643 31.2231 29.16 31.3985L27.9329 32.1065C27.4777 32.3691 27.1967 32.8562 27.1967 33.3814V33.9127V44.4199C27.1967 45.1242 27.5746 45.7745 28.1857 46.1242L28.6593 46.3942C29.2655 46.7402 30.0103 46.739 30.6152 46.3892L39.9579 40.9952C40.5653 40.6443 40.9395 39.9964 40.9395 39.2945V28.526C40.9395 27.8242 40.5653 27.1763 39.9579 26.8254L30.6324 21.4411C30.025 21.0902 29.2765 21.0902 28.6691 21.4411L19.3436 26.8254C18.7363 27.1763 18.362 27.8242 18.362 28.526V49.4949C18.362 50.1968 18.7363 50.8446 19.3436 51.1956L28.6691 56.5798C29.2765 56.9307 30.025 56.9307 30.6324 56.5798L48.7926 46.0948C49.3999 45.7438 49.7742 45.0959 49.7742 44.3941V23.4252C49.7742 22.7234 49.3999 22.0755 48.7926 21.7246L30.6324 11.2395C30.025 10.8886 29.2765 10.8886 28.6691 11.2395V11.2432Z" fill="url(#paint1_linear_1465_962)"/>
<path d="M93.4614 14.4387C96.2526 14.4387 98.6425 15.5035 100.631 17.6331C102.62 19.7626 103.614 22.2383 103.614 25.0567C103.614 27.875 102.62 30.3947 100.631 32.5154C98.6425 34.638 96.2526 35.6992 93.4614 35.6992H81.9834V51.3372H78.615V14.4387H93.4614ZM93.2696 32.8405C95.2741 32.8405 96.99 32.0762 98.419 30.5458C99.8463 29.0171 100.561 27.2021 100.561 25.1041C100.561 23.0062 99.8392 21.2368 98.3961 19.6994C96.953 18.1619 95.2442 17.3941 93.2713 17.3941H81.9834V32.8405H93.2678H93.2696Z" fill="white"/>
<path d="M114.057 51.5287C111.458 51.5287 109.297 50.7925 107.572 49.3183C105.847 47.8459 104.985 45.9798 104.985 43.7203C104.985 38.3717 108.714 35.448 116.173 34.9525L123.223 34.5202V33.4871C123.223 31.3259 122.573 29.676 121.275 28.5392C119.976 27.4024 118.195 26.8331 115.933 26.8331C113.961 26.8331 112.352 27.3901 111.11 28.5023C109.867 29.6163 109.14 31.029 108.933 32.7421H105.589C105.846 30.2752 106.881 28.1825 108.693 26.4606C110.506 24.7386 112.968 23.8777 116.079 23.8777C119.191 23.8777 121.834 24.7545 123.67 26.508C125.507 28.2616 126.424 30.6354 126.424 33.6312L126.472 44.706C126.472 46.1468 126.619 47.1518 126.917 47.7211C127.214 48.2904 127.723 48.5575 128.444 48.5258V51.3371C127.946 51.3371 127.491 51.2897 127.073 51.1931C124.844 50.7292 123.624 49.3675 123.416 47.1096C122.695 48.3589 121.463 49.4079 119.722 50.2566C117.982 51.1052 116.094 51.5304 114.056 51.5304L114.057 51.5287ZM114.202 48.5258C116.526 48.5258 118.612 47.8213 120.458 46.4121C122.302 45.0029 123.225 43.3776 123.225 41.5362V37.4528L116.174 37.9571C113.158 38.1486 111.066 38.7618 109.895 39.795C108.725 40.8281 108.139 42.153 108.139 43.7712C108.139 45.212 108.757 46.3664 109.992 47.2309C111.227 48.0954 112.63 48.5276 114.203 48.5276L114.202 48.5258Z" fill="white"/>
<path d="M141.438 51.7692C138.182 51.7692 135.683 50.924 133.943 49.2355C132.202 47.5452 131.268 45.6915 131.139 43.6744H134.244C134.435 44.9869 135.226 46.208 136.614 47.3378C138.001 48.4676 139.613 49.0317 141.45 49.0317C143.288 49.0317 144.831 48.5309 146.082 47.5311C147.334 46.5296 147.958 45.261 147.958 43.7235C147.958 42.1861 147.334 40.9808 146.082 40.2041C144.831 39.4275 143.027 38.8389 140.669 38.4383C138.103 38.006 136.037 37.2769 134.472 36.2525C132.908 35.2281 132.126 33.6187 132.126 31.4241C132.126 29.2295 133.042 27.3125 134.87 25.9596C136.699 24.6066 138.84 23.9302 141.294 23.9302C144.182 23.9302 146.438 24.5539 148.068 25.8032C149.695 27.0525 150.646 28.8711 150.919 31.2572H147.958C147.67 29.6881 146.892 28.5583 145.625 27.8695C144.358 27.1808 143.113 26.8206 141.896 26.7889C140.227 26.7257 138.775 27.0525 137.54 27.7746C136.304 28.495 135.687 29.5598 135.687 30.969C135.687 32.3782 136.267 33.508 137.431 34.1633C138.594 34.8205 140.257 35.316 142.424 35.6533C148.471 36.5986 151.494 39.2009 151.494 43.46C151.494 45.7828 150.531 47.7472 148.606 49.3567C146.681 50.9662 144.291 51.7709 141.436 51.7709L141.438 51.7692Z" fill="white"/>
<path d="M164.297 51.7692C161.041 51.7692 158.542 50.924 156.802 49.2355C155.061 47.5452 154.127 45.6915 153.998 43.6744H157.102C157.294 44.9869 158.085 46.208 159.473 47.3378C160.86 48.4676 162.472 49.0317 164.309 49.0317C166.147 49.0317 167.69 48.5309 168.941 47.5311C170.193 46.5296 170.817 45.261 170.817 43.7235C170.817 42.1861 170.193 40.9808 168.941 40.2041C167.69 39.4275 165.886 38.8389 163.528 38.4383C160.962 38.006 158.896 37.2769 157.331 36.2525C155.767 35.2281 154.985 33.6187 154.985 31.4241C154.985 29.2295 155.9 27.3125 157.729 25.9596C159.558 24.6066 161.699 23.9302 164.153 23.9302C167.041 23.9302 169.297 24.5539 170.926 25.8032C172.554 27.0525 173.505 28.8711 173.777 31.2572H170.817C170.529 29.6881 169.751 28.5583 168.484 27.8695C167.217 27.1808 165.972 26.8206 164.754 26.7889C163.086 26.7257 161.634 27.0525 160.399 27.7746C159.163 28.495 158.546 29.5598 158.546 30.969C158.546 32.3782 159.126 33.508 160.29 34.1633C161.453 34.8205 163.116 35.316 165.282 35.6533C171.329 36.5986 174.353 39.2009 174.353 43.46C174.353 45.7828 173.39 47.7472 171.465 49.3567C169.54 50.9662 167.15 51.7709 164.295 51.7709L164.297 51.7692Z" fill="white"/>
<path d="M191.774 24.0235C195.447 24.0235 198.427 25.3132 200.713 27.8908C202.999 30.4702 204.141 33.7243 204.141 37.6566C204.141 41.5889 202.978 44.8746 200.653 47.5172C198.326 50.1599 195.319 51.4812 191.63 51.4812C187.524 51.4812 184.339 49.7909 182.077 46.4121V63.6366H178.637V24.287H181.692L182.077 28.9468C184.242 25.6646 187.475 24.0217 191.774 24.0217V24.0235ZM191.294 48.4309C194.117 48.4309 196.399 47.3978 198.14 45.3315C199.88 43.2651 200.75 40.7121 200.75 37.6689C200.75 34.6256 199.887 32.0076 198.163 29.9571C196.438 27.9066 194.148 26.8822 191.294 26.8822C188.967 26.8822 186.975 27.6553 185.315 29.1998C183.656 30.746 182.577 32.728 182.079 35.1457V40.1657C182.575 42.601 183.656 44.5865 185.315 46.1239C186.975 47.6613 188.969 48.4292 191.294 48.4292V48.4309Z" fill="white"/>
<path d="M218.89 51.6725C215.105 51.6725 212.006 50.3389 209.591 47.6734C207.177 45.0062 205.969 41.7047 205.969 37.7636C205.969 33.8225 207.177 30.5174 209.591 27.8432C212.006 25.1689 215.105 23.8318 218.89 23.8318C222.676 23.8318 225.821 25.1689 228.227 27.8432C230.632 30.5174 231.836 33.8242 231.836 37.7636C231.836 41.7029 230.632 45.0062 228.227 47.6734C225.821 50.3407 222.708 51.6725 218.89 51.6725ZM212.021 45.4262C213.762 47.4925 216.048 48.5256 218.878 48.5256C221.708 48.5256 223.994 47.4925 225.735 45.4262C227.475 43.3598 228.344 40.8068 228.344 37.7636C228.344 34.7203 227.482 32.1023 225.757 30.0518C224.033 28.0013 221.743 26.9769 218.889 26.9769C216.034 26.9769 213.78 28.0013 212.032 30.0518C210.283 32.1023 209.41 34.6729 209.41 37.7636C209.41 40.8543 210.279 43.3616 212.02 45.4262H212.021Z" fill="white"/>
<path d="M249.425 24.0233L249.377 26.9787C246.65 26.7222 244.353 27.3793 242.484 28.9484C240.615 30.5174 239.68 32.7682 239.68 35.699V51.3369H236.12V24.2869H239.175L239.68 29.6442C240.05 28.8271 240.427 28.1313 240.812 27.555C241.197 26.9787 241.75 26.3707 242.472 25.7294C243.193 25.0898 244.147 24.6277 245.335 24.3484C246.521 24.069 247.885 23.96 249.425 24.0233Z" fill="white"/>
<path d="M263.355 51.3846C258.623 51.3846 256.258 49.1356 256.258 44.6339L256.305 26.9297H252.166V24.1905H256.305V14.4387H259.746V24.1922H265.809V26.9789L259.602 26.9315V44.156C259.602 44.8132 259.633 45.3368 259.698 45.7304C259.762 46.1222 259.902 46.5386 260.119 46.9796C260.335 47.4207 260.716 47.7492 261.261 47.9653C261.807 48.1815 262.504 48.2904 263.354 48.2904H266.217V51.3899H263.354L263.355 51.3846Z" fill="white"/>
<defs>
<linearGradient id="paint0_linear_1465_962" x1="13.053" y1="2.18744" x2="43.1297" y2="65.9764" gradientUnits="userSpaceOnUse">
<stop stop-color="#4A47D3"/>
<stop offset="1" stop-color="#C1F6FF"/>
</linearGradient>
<linearGradient id="paint1_linear_1465_962" x1="18.1069" y1="11.9328" x2="38.8885" y2="56.1852" gradientUnits="userSpaceOnUse">
<stop stop-color="#4A47D3"/>
<stop offset="1" stop-color="#C1F6FF"/>
</linearGradient>
</defs>
</svg>
