<svg width="267" height="67" viewBox="0 0 267 67" fill="none" xmlns="http://www.w3.org/2000/svg">
<path d="M93.5486 14.3708C96.3398 14.3708 98.7297 15.4356 100.718 17.5652C102.707 19.6948 103.701 22.1705 103.701 24.9888C103.701 27.8072 102.707 30.3268 100.718 32.4476C98.7297 34.5701 96.3398 35.6314 93.5486 35.6314H82.0706V51.2693H78.7021V14.3708H93.5486ZM93.3567 32.7726C95.3613 32.7726 97.0771 32.0083 98.5062 30.4779C99.9334 28.9492 100.648 27.1342 100.648 25.0363C100.648 22.9383 99.9264 21.1689 98.4833 19.6315C97.0402 18.0941 95.3313 17.3262 93.3585 17.3262H82.0706V32.7726H93.355H93.3567Z" fill="black"/>
<path d="M114.144 51.4606C111.545 51.4606 109.384 50.7243 107.659 49.2502C105.935 47.7777 105.072 45.9117 105.072 43.6521C105.072 38.3036 108.801 35.3799 116.26 34.8844L123.31 34.4521V33.419C123.31 31.2578 122.661 29.6079 121.362 28.4711C120.063 27.3342 118.282 26.765 116.021 26.765C114.048 26.765 112.439 27.3219 111.197 28.4342C109.954 29.5482 109.227 30.9608 109.02 32.674H105.676C105.933 30.2071 106.968 28.1144 108.78 26.3925C110.593 24.6705 113.055 23.8096 116.167 23.8096C119.278 23.8096 121.921 24.6863 123.757 26.4399C125.594 28.1935 126.511 30.5673 126.511 33.5631L126.559 44.6379C126.559 46.0787 126.707 47.0837 127.004 47.653C127.301 48.2223 127.81 48.4893 128.532 48.4577V51.269C128.034 51.269 127.578 51.2216 127.161 51.125C124.931 50.6611 123.711 49.2994 123.504 47.0415C122.782 48.2908 121.55 49.3398 119.81 50.1884C118.069 51.0371 116.181 51.4623 114.143 51.4623L114.144 51.4606ZM114.289 48.4577C116.614 48.4577 118.699 47.7531 120.545 46.344C122.39 44.9348 123.312 43.3095 123.312 41.4681V37.3847L116.262 37.889C113.245 38.0805 111.153 38.6937 109.982 39.7269C108.812 40.76 108.226 42.0848 108.226 43.7031C108.226 45.1439 108.844 46.2983 110.079 47.1628C111.315 48.0272 112.717 48.4595 114.291 48.4595L114.289 48.4577Z" fill="black"/>
<path d="M141.525 51.7013C138.269 51.7013 135.77 50.8561 134.03 49.1676C132.289 47.4773 131.355 45.6236 131.226 43.6065H134.331C134.523 44.919 135.313 46.1402 136.701 47.27C138.088 48.3998 139.7 48.9638 141.538 48.9638C143.375 48.9638 144.918 48.463 146.17 47.4632C147.421 46.4617 148.046 45.1931 148.046 43.6557C148.046 42.1182 147.421 40.9129 146.17 40.1363C144.918 39.3596 143.114 38.771 140.756 38.3704C138.19 37.9382 136.124 37.209 134.56 36.1846C132.995 35.1603 132.214 33.5508 132.214 31.3562C132.214 29.1616 133.129 27.2447 134.957 25.8917C136.786 24.5388 138.928 23.8623 141.381 23.8623C144.269 23.8623 146.525 24.4861 148.155 25.7353C149.783 26.9846 150.733 28.8032 151.006 31.1893H148.046C147.757 29.6202 146.979 28.4904 145.712 27.8017C144.445 27.1129 143.201 26.7527 141.983 26.7211C140.314 26.6578 138.862 26.9846 137.627 27.7068C136.392 28.4272 135.774 29.492 135.774 30.9011C135.774 32.3103 136.355 33.4401 137.518 34.0955C138.681 34.7526 140.344 35.2481 142.511 35.5855C148.558 36.5308 151.581 39.133 151.581 43.3921C151.581 45.715 150.619 47.6794 148.693 49.2888C146.768 50.8983 144.378 51.7031 141.523 51.7031L141.525 51.7013Z" fill="black"/>
<path d="M164.384 51.7013C161.128 51.7013 158.629 50.8561 156.888 49.1676C155.148 47.4773 154.213 45.6236 154.085 43.6065H157.189C157.381 44.919 158.171 46.1402 159.56 47.27C160.947 48.3998 162.559 48.9638 164.396 48.9638C166.233 48.9638 167.777 48.463 169.028 47.4632C170.279 46.4617 170.904 45.1931 170.904 43.6557C170.904 42.1182 170.279 40.9129 169.028 40.1363C167.777 39.3596 165.973 38.771 163.615 38.3704C161.049 37.9382 158.983 37.209 157.418 36.1846C155.854 35.1603 155.072 33.5508 155.072 31.3562C155.072 29.1616 155.987 27.2447 157.816 25.8917C159.644 24.5388 161.786 23.8623 164.24 23.8623C167.127 23.8623 169.384 24.4861 171.013 25.7353C172.641 26.9846 173.592 28.8032 173.864 31.1893H170.904C170.616 29.6202 169.838 28.4904 168.571 27.8017C167.303 27.1129 166.059 26.7527 164.841 26.7211C163.173 26.6578 161.721 26.9846 160.486 27.7068C159.25 28.4272 158.633 29.492 158.633 30.9011C158.633 32.3103 159.213 33.4401 160.377 34.0955C161.54 34.7526 163.203 35.2481 165.369 35.5855C171.416 36.5308 174.44 39.133 174.44 43.3921C174.44 45.715 173.477 47.6794 171.552 49.2888C169.627 50.8983 167.237 51.7031 164.382 51.7031L164.384 51.7013Z" fill="black"/>
<path d="M191.862 23.9556C195.535 23.9556 198.514 25.2453 200.8 27.8229C203.086 30.4023 204.228 33.6564 204.228 37.5887C204.228 41.521 203.065 44.8067 200.74 47.4494C198.414 50.092 195.406 51.4133 191.717 51.4133C187.612 51.4133 184.426 49.723 182.165 46.3442V63.5687H178.724V24.2192H181.779L182.165 28.8789C184.329 25.5967 187.562 23.9539 191.862 23.9539V23.9556ZM191.381 48.3631C194.204 48.3631 196.487 47.3299 198.227 45.2636C199.968 43.1973 200.837 40.6443 200.837 37.601C200.837 34.5578 199.975 31.9397 198.25 29.8892C196.525 27.8387 194.236 26.8144 191.381 26.8144C189.055 26.8144 187.062 27.5875 185.403 29.1319C183.743 30.6782 182.665 32.6601 182.166 35.0779V40.0978C182.663 42.5331 183.743 44.5186 185.403 46.056C187.062 47.5935 189.056 48.3613 191.381 48.3613V48.3631Z" fill="black"/>
<path d="M218.977 51.6047C215.192 51.6047 212.093 50.271 209.678 47.6056C207.264 44.9383 206.056 41.6368 206.056 37.6957C206.056 33.7546 207.264 30.4496 209.678 27.7753C212.093 25.101 215.192 23.7639 218.977 23.7639C222.763 23.7639 225.908 25.101 228.314 27.7753C230.719 30.4496 231.923 33.7564 231.923 37.6957C231.923 41.6351 230.719 44.9383 228.314 47.6056C225.908 50.2728 222.795 51.6047 218.977 51.6047ZM212.109 45.3583C213.849 47.4246 216.135 48.4578 218.965 48.4578C221.795 48.4578 224.081 47.4246 225.822 45.3583C227.562 43.292 228.432 40.739 228.432 37.6957C228.432 34.6525 227.569 32.0344 225.845 29.9839C224.12 27.9334 221.83 26.9091 218.976 26.9091C216.121 26.9091 213.867 27.9334 212.119 29.9839C210.37 32.0344 209.497 34.605 209.497 37.6957C209.497 40.7864 210.366 43.2937 212.107 45.3583H212.109Z" fill="black"/>
<path d="M249.512 23.9554L249.465 26.9108C246.737 26.6543 244.44 27.3114 242.571 28.8805C240.702 30.4496 239.768 32.7004 239.768 35.6311V51.2691H236.208V24.219H239.263L239.768 29.5763C240.137 28.7593 240.514 28.0635 240.899 27.4871C241.285 26.9108 241.837 26.3029 242.559 25.6615C243.281 25.022 244.234 24.5599 245.422 24.2805C246.608 24.0011 247.972 23.8922 249.512 23.9554Z" fill="black"/>
<path d="M263.443 51.3167C258.71 51.3167 256.345 49.0677 256.345 44.5661L256.393 26.8618H252.253V24.1226H256.393V14.3708H259.833V24.1243H265.896V26.911L259.689 26.8636V44.0882C259.689 44.7453 259.721 45.2689 259.786 45.6625C259.849 46.0543 259.99 46.4707 260.206 46.9118C260.423 47.3528 260.803 47.6814 261.349 47.8975C261.894 48.1136 262.591 48.2225 263.441 48.2225H266.304V51.322H263.441L263.443 51.3167Z" fill="black"/>
<path d="M28.757 66.6881L1.78657 51.1169C1.17918 50.766 0.804932 50.1181 0.804932 49.4162V18.2738C0.804932 17.572 1.17918 16.9241 1.78657 16.5732L28.757 1.00197C29.3644 0.651036 30.1129 0.651036 30.7203 1.00197L57.6907 16.5732C58.2981 16.9241 58.6723 17.572 58.6723 18.2738V49.4162C58.6723 50.1181 58.2981 50.766 57.6907 51.1169L30.7203 66.6881C30.1129 67.0391 29.3644 67.0391 28.757 66.6881ZM6.69475 48.2837L28.757 61.0216C29.3644 61.3726 30.1129 61.3726 30.7203 61.0216L52.7825 48.2837C53.3899 47.9327 53.7642 47.2849 53.7642 46.583V21.1083C53.7642 20.4064 53.3899 19.7586 52.7825 19.4076L30.7203 6.6697C30.1129 6.31876 29.3644 6.31876 28.757 6.6697L6.69475 19.4076C6.08736 19.7586 5.71311 20.4064 5.71311 21.1083V46.583C5.71311 47.2849 6.08736 47.9327 6.69475 48.2837Z" fill="black"/>
<path d="M28.7571 11.1756L10.5969 21.6607C9.98948 22.0116 9.61523 22.6595 9.61523 23.3613V43.1978C9.61523 44.6003 10.3637 45.8972 11.5785 46.5979L13.7872 47.8728C14.1148 48.0618 14.5234 47.8262 14.5234 47.4482V26.1958C14.5234 25.494 14.8977 24.8461 15.505 24.4951L28.7571 16.8445C29.3645 16.4936 30.113 16.4936 30.7204 16.8445L43.9725 24.4951C44.5799 24.8461 44.9541 25.494 44.9541 26.1958V41.4983C44.9541 42.2002 44.5799 42.848 43.9725 43.199L30.7204 50.8496C30.113 51.2005 29.3645 51.2005 28.7571 50.8496L24.3398 48.2998C23.7324 47.9489 23.3581 47.301 23.3581 46.5991V31.2966C23.3581 30.5948 23.7324 29.9469 24.3398 29.596L28.7571 27.0462C29.3645 26.6952 30.113 26.6952 30.7204 27.0462L35.1378 29.596C35.7451 29.9469 36.1194 30.5948 36.1194 31.2966V36.3975C36.1194 37.0993 35.7451 37.7472 35.1378 38.0982L32.9291 39.3731C32.6015 39.562 32.1929 39.3264 32.1929 38.9485V35.811V33.5986C32.1929 32.8967 31.8186 32.2488 31.2112 31.8979L30.2296 31.331C29.9253 31.1555 29.5523 31.1555 29.2479 31.331L28.0209 32.039C27.5657 32.3016 27.2847 32.7887 27.2847 33.3139V33.8452V44.3524C27.2847 45.0567 27.6626 45.7071 28.2737 46.0568L28.7473 46.3267C29.3535 46.6727 30.0983 46.6715 30.7032 46.3218L40.0459 40.9277C40.6533 40.5768 41.0276 39.9289 41.0276 39.227V28.4585C41.0276 27.7566 40.6533 27.1087 40.0459 26.7578L30.7204 21.3735C30.113 21.0226 29.3645 21.0226 28.7571 21.3735L19.4316 26.7578C18.8242 27.1087 18.45 27.7566 18.45 28.4585V49.4275C18.45 50.1293 18.8242 50.7772 19.4316 51.1281L28.7571 56.5124C29.3645 56.8633 30.113 56.8633 30.7204 56.5124L48.8807 46.0273C49.488 45.6764 49.8623 45.0285 49.8623 44.3266V23.3577C49.8623 22.6558 49.488 22.0079 48.8807 21.657L30.7204 11.1719C30.113 10.821 29.3645 10.821 28.7571 11.1719V11.1756Z" fill="black"/>
</svg>
